<svg width="328" height="72" viewBox="0 0 328 72" fill="none" xmlns="http://www.w3.org/2000/svg">
<path d="M-50 -28L-114 100M-46 -28L-110 100M-42 -28L-106 100M-38 -28L-102 100M-34 -28L-98 100M-30 -28L-94 100M-26 -28L-90 100M-22 -28L-86 100M-18 -28L-82 100M-14 -28L-78 100M-9.99996 -28L-74 100M-5.99995 -28L-70 100M-1.99995 -28L-66 100M2.00005 -28L-62 100M6.00005 -28L-58 100M10.0001 -28L-54 100M14.0001 -28L-49.9999 100M18.0001 -28L-45.9999 100M22.0001 -28L-41.9999 100M26.0001 -28L-37.9999 100M30.0001 -28L-33.9999 100M34.0001 -28L-29.9999 100M38.0001 -28L-25.9999 100M42.0001 -28L-21.9999 100M46.0001 -28L-17.9999 100M50.0001 -28L-13.9999 100M54.0001 -28L-9.99994 100M58.0001 -28L-5.99994 100M62.0001 -28L-1.99994 100M66.0001 -28L2.00006 100M70.0001 -28L6.00006 100M74.0001 -28L10.0001 100M78.0001 -28L14.0001 100M82.0001 -28L18.0001 100M86.0001 -28L22.0001 100M90.0001 -28L26.0001 100M94.0001 -28L30.0001 100M98.0001 -28L34.0001 100M102 -28L38.0001 100M106 -28L42.0001 100M110 -28L46.0001 100M114 -28L50.0001 100M118 -28L54.0001 100M122 -28L58.0001 100M126 -28L62.0001 100M130 -28L66.0001 100M134 -28L70.0001 100M138 -28L74.0001 100M142 -28L78.0001 100M146 -28L82.0001 100M150 -28L86.0001 100M154 -28L90.0001 100M158 -28L94.0001 100M162 -28L98.0001 100M166 -28L102 100M170 -28L106 100M174 -28L110 100M178 -28L114 100M182 -28L118 100M186 -28L122 100M190 -28L126 100M194 -28L130 100M198 -28L134 100M202 -28L138 100M206 -28L142 100M210 -28L146 100M214 -28L150 100M218 -28L154 100M222 -28L158 100M226 -28L162 100M230 -28L166 100M234 -28L170 100M238 -28L174 100M242 -28L178 100M246 -28L182 100M250 -28L186 100M254 -28L190 100M258 -28L194 100M262 -28L198 100M266 -28L202 100M270 -28L206 100M274 -28L210 100M278 -28L214 100M282 -28L218 100M286 -28L222 100M290 -28L226 100M294 -28L230 100M298 -28L234 100M302 -28L238 100M306 -28L242 100M310 -28L246 100M314 -28L250 100M318 -28L254 100M322 -28L258 100M326 -28L262 100M330 -28L266 100M334 -28L270 100M338 -28L274 100M342 -28L278 100M346 -28L282 100M350 -28L286 100M354 -28L290 100M358 -28L294 100M362 -28L298 100M366 -28L302 100M370 -28L306 100M374 -28L310 100M378 -28L314 100M382 -28L318 100M386 -28L322 100M390 -28L326 100M394 -28L330 100M398 -28L334 100M402 -28L338 100M406 -28L342 100M410 -28L346 100" stroke="white" stroke-width="1.5"/>
</svg>
