<svg xmlns="http://www.w3.org/2000/svg" xmlns:xlink="http://www.w3.org/1999/xlink" fill="none" version="1.1" width="360" height="288" viewBox="0 0 360 288"><defs><linearGradient x1="0.2916666865348816" y1="-0.027777783572673798" x2="0.5444443821907043" y2="0.7534723281860352" id="master_svg0_0_3674"><stop offset="0%" stop-color="#FFFFFF" stop-opacity="1"/><stop offset="100%" stop-color="#E5DDDB" stop-opacity="1"/></linearGradient><radialGradient cx="0" cy="0" r="1" gradientUnits="userSpaceOnUse" id="master_svg1_0_3676" gradientTransform="translate(-9.992007221626409e-15 0) rotate(59.98627569449137) scale(237.90124255810636 237.90126382813494)"><stop offset="0%" stop-color="#FFFFFF" stop-opacity="1"/><stop offset="100%" stop-color="#FFFFFF" stop-opacity="0"/></radialGradient></defs><g><path d="M51.1951,0C119.661,0,240.339,0,308.805,0C326.725,0,335.884,0.0341489,342.707,3.56487C348.578,6.60264,353.386,11.4036,356.429,17.2691C359.966,24.0886,360,33.2719,360,51.245C360,68.5198,360,87.6274,360,104.268C360,120.053,359.984,128.055,357.397,134.858C355.142,140.789,351.501,146.105,346.786,150.353C341.379,155.224,333.921,158.142,319.201,163.866C247.884,191.601,101.783,248.418,34.868,274.44C23.1674,278.99,17.1329,281.304,12.4559,280.24C8.50192,279.34,4.99954,276.951,2.72375,273.599C0.0298247,269.63,0,263.164,0,250.595C0,199.707,0,108.462,0,51.2401C0,33.2617,0.0325847,24.078,3.57139,17.259C6.61424,11.3957,11.4222,6.5977,17.2927,3.56209C24.1169,0.0333514,33.2754,0,51.1951,0" fill="#77E5CA" fillOpacity="1"/><path d="M51.1951,0C119.661,0,240.339,0,308.805,0C326.725,0,335.884,0.0341489,342.707,3.56487C348.578,6.60264,353.386,11.4036,356.429,17.2691C359.966,24.0886,360,33.2719,360,51.245C360,68.5198,360,87.6274,360,104.268C360,120.053,359.984,128.055,357.397,134.858C355.142,140.789,351.501,146.105,346.786,150.353C341.379,155.224,333.921,158.142,319.201,163.866C247.884,191.601,101.783,248.418,34.868,274.44C23.1674,278.99,17.1329,281.304,12.4559,280.24C8.50192,279.34,4.99954,276.951,2.72375,273.599C0.0298247,269.63,0,263.164,0,250.595C0,199.707,0,108.462,0,51.2401C0,33.2617,0.0325847,24.078,3.57139,17.259C6.61424,11.3957,11.4222,6.5977,17.2927,3.56209C24.1169,0.0333514,33.2754,0,51.1951,0" fill="url(#master_svg0_0_3674)" fillOpacity="1" style="mix-blend-mode:undefined"/><path d="M51.1951,0C119.661,0,240.339,0,308.805,0C326.725,0,335.884,0.0341489,342.707,3.56487C348.578,6.60264,353.386,11.4036,356.429,17.2691C359.966,24.0886,360,33.2719,360,51.245C360,68.5198,360,87.6274,360,104.268C360,120.053,359.984,128.055,357.397,134.858C355.142,140.789,351.501,146.105,346.786,150.353C341.379,155.224,333.921,158.142,319.201,163.866C247.884,191.601,101.783,248.418,34.868,274.44C23.1674,278.99,17.1329,281.304,12.4559,280.24C8.50192,279.34,4.99954,276.951,2.72375,273.599C0.0298247,269.63,0,263.164,0,250.595C0,199.707,0,108.462,0,51.2401C0,33.2617,0.0325847,24.078,3.57139,17.259C6.61424,11.3957,11.4222,6.5977,17.2927,3.56209C24.1169,0.0333514,33.2754,0,51.1951,0" fill="url(#master_svg1_0_3676)" fillOpacity="0.6399999856948853" style="mix-blend-mode:overlay"/></g></svg>