<svg xmlns="http://www.w3.org/2000/svg" xmlns:xlink="http://www.w3.org/1999/xlink" fill="none" version="1.1" width="360" height="288" viewBox="0 0 360 288"><defs><linearGradient x1="0.2916666865348816" y1="-0.027777783572673798" x2="0.5444443821907043" y2="0.7534723281860352" id="master_svg0_0_3688"><stop offset="0%" stop-color="#FFFFFF" stop-opacity="1"/><stop offset="100%" stop-color="#E5DDDB" stop-opacity="1"/></linearGradient><radialGradient cx="0" cy="0" r="1" gradientUnits="userSpaceOnUse" id="master_svg1_0_3690" gradientTransform="translate(360 288) rotate(59.98627569449137) scale(237.90124255810636 237.90126382813494)"><stop offset="0%" stop-color="#FFFFFF" stop-opacity="1"/><stop offset="100%" stop-color="#FFFFFF" stop-opacity="0"/></radialGradient></defs><g transform="matrix(-1,0,0,-1,720,576)"><path d="M411.1951,288C479.661,288,600.3389999999999,288,668.8050000000001,288C686.725,288,695.884,288.0341489,702.707,291.56487C708.578,294.60264,713.386,299.4036,716.429,305.2691C719.966,312.0886,720,321.2719,720,339.245C720,356.51980000000003,720,375.62739999999997,720,392.26800000000003C720,408.053,719.9839999999999,416.055,717.3969999999999,422.858C715.142,428.789,711.501,434.105,706.7860000000001,438.353C701.379,443.224,693.921,446.142,679.201,451.866C607.884,479.601,461.783,536.418,394.868,562.44C383.1674,566.99,377.1329,569.304,372.4559,568.24C368.50192,567.3399999999999,364.99954,564.951,362.72375,561.5989999999999C360.0298247,557.63,360,551.164,360,538.595C360,487.707,360,396.462,360,339.2401C360,321.2617,360.0325847,312.078,363.57139,305.259C366.61424,299.3957,371.4222,294.5977,377.2927,291.56209C384.1169,288.0333514,393.2754,288,411.1951,288" fill="#4534C1" fillOpacity="1"/><path d="M411.1951,288C479.661,288,600.3389999999999,288,668.8050000000001,288C686.725,288,695.884,288.0341489,702.707,291.56487C708.578,294.60264,713.386,299.4036,716.429,305.2691C719.966,312.0886,720,321.2719,720,339.245C720,356.51980000000003,720,375.62739999999997,720,392.26800000000003C720,408.053,719.9839999999999,416.055,717.3969999999999,422.858C715.142,428.789,711.501,434.105,706.7860000000001,438.353C701.379,443.224,693.921,446.142,679.201,451.866C607.884,479.601,461.783,536.418,394.868,562.44C383.1674,566.99,377.1329,569.304,372.4559,568.24C368.50192,567.3399999999999,364.99954,564.951,362.72375,561.5989999999999C360.0298247,557.63,360,551.164,360,538.595C360,487.707,360,396.462,360,339.2401C360,321.2617,360.0325847,312.078,363.57139,305.259C366.61424,299.3957,371.4222,294.5977,377.2927,291.56209C384.1169,288.0333514,393.2754,288,411.1951,288" fill="url(#master_svg0_0_3688)" fillOpacity="1" style="mix-blend-mode:undefined"/><path d="M411.1951,288C479.661,288,600.3389999999999,288,668.8050000000001,288C686.725,288,695.884,288.0341489,702.707,291.56487C708.578,294.60264,713.386,299.4036,716.429,305.2691C719.966,312.0886,720,321.2719,720,339.245C720,356.51980000000003,720,375.62739999999997,720,392.26800000000003C720,408.053,719.9839999999999,416.055,717.3969999999999,422.858C715.142,428.789,711.501,434.105,706.7860000000001,438.353C701.379,443.224,693.921,446.142,679.201,451.866C607.884,479.601,461.783,536.418,394.868,562.44C383.1674,566.99,377.1329,569.304,372.4559,568.24C368.50192,567.3399999999999,364.99954,564.951,362.72375,561.5989999999999C360.0298247,557.63,360,551.164,360,538.595C360,487.707,360,396.462,360,339.2401C360,321.2617,360.0325847,312.078,363.57139,305.259C366.61424,299.3957,371.4222,294.5977,377.2927,291.56209C384.1169,288.0333514,393.2754,288,411.1951,288" fill="url(#master_svg1_0_3690)" fillOpacity="0.6399999856948853" style="mix-blend-mode:overlay"/></g></svg>