<svg xmlns="http://www.w3.org/2000/svg" xmlns:xlink="http://www.w3.org/1999/xlink" fill="none" version="1.1" viewBox="17.14 5.71 80 80"><defs><filter id="master_svg0_0_2168/0_3589/0_3600" filterUnits="objectBoundingBox" color-interpolation-filters="sRGB" x="-83.80894756317139" y="-15.23798942565918" width="125.71405029296875" height="148.57046031951904"><feFlood flood-opacity="0" result="BackgroundImageFix"></feFlood><feColorMatrix in="SourceAlpha" type="matrix" values="0 0 0 0 0 0 0 0 0 0 0 0 0 0 0 0 0 0 127 0"></feColorMatrix><feOffset dy="26.66648292541504" dx="0"></feOffset><feGaussianBlur stdDeviation="5.71424674987793"></feGaussianBlur><feColorMatrix type="matrix" values="0 0 0 0 0.003921568859368563 0 0 0 0 0.21568627655506134 0 0 0 0 0.15294118225574493 0 0 0 0.019999999552965164 0"></feColorMatrix><feBlend mode="normal" in2="BackgroundImageFix" result="effect1_dropShadow"></feBlend><feColorMatrix in="SourceAlpha" type="matrix" values="0 0 0 0 0 0 0 0 0 0 0 0 0 0 0 0 0 0 127 0"></feColorMatrix><feOffset dy="38.094974517822266" dx="0"></feOffset><feGaussianBlur stdDeviation="5.71424674987793"></feGaussianBlur><feColorMatrix type="matrix" values="0 0 0 0 0.003921568859368563 0 0 0 0 0.21568627655506134 0 0 0 0 0.15294118225574493 0 0 0 0 0"></feColorMatrix><feBlend mode="normal" in2="effect1_dropShadow" result="effect2_dropShadow"></feBlend><feColorMatrix in="SourceAlpha" type="matrix" values="0 0 0 0 0 0 0 0 0 0 0 0 0 0 0 0 0 0 127 0"></feColorMatrix><feOffset dy="7.61899471282959" dx="0"></feOffset><feGaussianBlur stdDeviation="3.809497356414795"></feGaussianBlur><feColorMatrix type="matrix" values="0 0 0 0 0.003921568859368563 0 0 0 0 0.21568627655506134 0 0 0 0 0.15294118225574493 0 0 0 0.14000000059604645 0"></feColorMatrix><feBlend mode="normal" in2="effect2_dropShadow" result="effect3_dropShadow"></feBlend><feColorMatrix in="SourceAlpha" type="matrix" values="0 0 0 0 0 0 0 0 0 0 0 0 0 0 0 0 0 0 127 0"></feColorMatrix><feOffset dy="15.23798942565918" dx="0"></feOffset><feGaussianBlur stdDeviation="3.809497356414795"></feGaussianBlur><feColorMatrix type="matrix" values="0 0 0 0 0.003921568859368563 0 0 0 0 0.21568627655506134 0 0 0 0 0.15294118225574493 0 0 0 0.07999999821186066 0"></feColorMatrix><feBlend mode="normal" in2="effect3_dropShadow" result="effect4_dropShadow"></feBlend><feColorMatrix in="SourceAlpha" type="matrix" values="0 0 0 0 0 0 0 0 0 0 0 0 0 0 0 0 0 0 127 0"></feColorMatrix><feOffset dy="0" dx="0"></feOffset><feGaussianBlur stdDeviation="1.9047486782073975"></feGaussianBlur><feColorMatrix type="matrix" values="0 0 0 0 0.003921568859368563 0 0 0 0 0.21568627655506134 0 0 0 0 0.15294118225574493 0 0 0 0.1599999964237213 0"></feColorMatrix><feBlend mode="normal" in2="effect4_dropShadow" result="effect5_dropShadow"></feBlend><feBlend mode="normal" in="SourceGraphic" in2="effect5_dropShadow" result="shape"></feBlend><feColorMatrix in="SourceAlpha" type="matrix" result="hardAlpha" values="0 0 0 0 0 0 0 0 0 0 0 0 0 0 0 0 0 0 127 0"></feColorMatrix><feOffset dy="-0.6802674531936646" dx="0.6802674531936646"></feOffset><feGaussianBlur stdDeviation="0.6802674531936646"></feGaussianBlur><feComposite in2="hardAlpha" operator="arithmetic" k2="-1" k3="1"></feComposite><feColorMatrix type="matrix" values="0 0 0 0 1 0 0 0 0 1 0 0 0 0 1 0 0 0 1 0"></feColorMatrix><feBlend mode="normal" in2="shape" result="effect6_innerShadow"></feBlend></filter><linearGradient x1="-0.1190476194024086" y1="0.1428571492433548" x2="1.0544217824935913" y2="0.6802721619606018" id="master_svg1_0_3715"><stop offset="0%" stop-color="#E5DDDB" stop-opacity="1"></stop><stop offset="5.000000074505806%" stop-color="#E5DDDB" stop-opacity="1"></stop><stop offset="30.000001192092896%" stop-color="#FFFFFF" stop-opacity="1"></stop><stop offset="75%" stop-color="#FFFFFF" stop-opacity="1"></stop><stop offset="100%" stop-color="#E5DDDB" stop-opacity="1"></stop></linearGradient></defs><g filter="url(#master_svg0_0_2168/0_3589/0_3600)"><path d="M17.142745971679688,5.7142333984375L28.64694597167969,62.8567333984375L46.68604597167969,62.8567333984375L51.436345971679685,53.0214333984375C54.436945971679684,56.9926333984375,60.57754597167969,58.8269333984375,68.75234597167969,61.2690333984375L68.75534597167969,61.2699333984375L68.75974597167968,61.2712333984375C74.94574597167968,63.1221333984375,77.5059459716797,63.8882333984375,76.98984597167969,67.42453339843749C76.48904597167969,70.7373333984375,73.5196459716797,72.4171333984375,68.16314597167968,72.4171333984375C62.08354597167969,72.4171333984375,56.718645971679685,70.2733333984375,53.96164597167969,66.7843333984375L43.80984597167969,75.5936333984375C48.035245971679686,81.6640333984375,57.52374597167969,85.7133333984375,67.63004597167969,85.7137333984375L67.63144597167968,85.7137333984375C78.78574597167969,85.7133333984375,91.45024597167969,81.0207333984375,93.54464597167969,67.8528333984375C95.73734597167969,54.3095333984375,83.78454597167969,51.0663333984375,75.0565459716797,48.6981333984375L75.05424597167968,48.6975333984375C68.00834597167969,46.7864333984375,65.75354597167969,45.6395333984375,66.28664597167969,42.6076333984375C67.0265459716797,38.5747333984375,71.30274597167968,38.0570333984375,74.94594597167969,38.0570333984375C80.19834597167969,38.0570333984375,84.17914597167969,39.2424333984375,87.41864597167968,41.7814333984375L97.14284597167969,31.9808333984375C92.10844597167969,27.1892333984375,84.55054597167968,24.7617333984375,75.81804597167968,24.7617333984375C72.5351459716797,24.7617333984375,68.36484597167969,25.0990333984375,64.3091459716797,26.3690333984375L74.28524597167969,5.7142333984375L57.131945971679684,5.7142333984375L39.72834597167969,46.3587333984375L33.97284597167969,5.7142333984375L17.142745971679688,5.7142333984375Z" fillRule="evenodd" fill="#FFFFFF" fillOpacity="1"></path><path d="M17.142745971679688,5.7142333984375L28.64694597167969,62.8567333984375L46.68604597167969,62.8567333984375L51.436345971679685,53.0214333984375C54.436945971679684,56.9926333984375,60.57754597167969,58.8269333984375,68.75234597167969,61.2690333984375L68.75534597167969,61.2699333984375L68.75974597167968,61.2712333984375C74.94574597167968,63.1221333984375,77.5059459716797,63.8882333984375,76.98984597167969,67.42453339843749C76.48904597167969,70.7373333984375,73.5196459716797,72.4171333984375,68.16314597167968,72.4171333984375C62.08354597167969,72.4171333984375,56.718645971679685,70.2733333984375,53.96164597167969,66.7843333984375L43.80984597167969,75.5936333984375C48.035245971679686,81.6640333984375,57.52374597167969,85.7133333984375,67.63004597167969,85.7137333984375L67.63144597167968,85.7137333984375C78.78574597167969,85.7133333984375,91.45024597167969,81.0207333984375,93.54464597167969,67.8528333984375C95.73734597167969,54.3095333984375,83.78454597167969,51.0663333984375,75.0565459716797,48.6981333984375L75.05424597167968,48.6975333984375C68.00834597167969,46.7864333984375,65.75354597167969,45.6395333984375,66.28664597167969,42.6076333984375C67.0265459716797,38.5747333984375,71.30274597167968,38.0570333984375,74.94594597167969,38.0570333984375C80.19834597167969,38.0570333984375,84.17914597167969,39.2424333984375,87.41864597167968,41.7814333984375L97.14284597167969,31.9808333984375C92.10844597167969,27.1892333984375,84.55054597167968,24.7617333984375,75.81804597167968,24.7617333984375C72.5351459716797,24.7617333984375,68.36484597167969,25.0990333984375,64.3091459716797,26.3690333984375L74.28524597167969,5.7142333984375L57.131945971679684,5.7142333984375L39.72834597167969,46.3587333984375L33.97284597167969,5.7142333984375L17.142745971679688,5.7142333984375Z" fillRule="evenodd" fill="url(#master_svg1_0_3715)" fillOpacity="1"></path></g></svg>