<svg xmlns="http://www.w3.org/2000/svg" xmlns:xlink="http://www.w3.org/1999/xlink" fill="none" version="1.1" width="360.435546875" height="445.22705078125" viewBox="0 0 360.435546875 445.22705078125"><g><g></g><g></g><g style="opacity:0.3199999928474426;mix-blend-mode:overlay"><g transform="matrix(0.36650124192237854,0.9304175972938538,-0.9304175972938538,0.36650124192237854,138.52982271112492,-203.45838614763682)"><path d="M229.19724011230468,-0.000039577484130859375L218.6742401123047,-0.000039577484130859375L218.6742401123047,232.86296042251587L605.4712401123047,232.86296042251587L605.4712401123047,-0.000039577484130859375L229.19724011230468,-0.000039577484130859375ZM227.4020501123047,1.7513604225158692L220.42564011230468,1.7513604225158692L220.42564011230468,8.727770422515869C224.07439011230468,8.31911042251587,226.9933901123047,5.414710422515869,227.3874501123047,1.7659604225158692L227.4020501123047,1.7513604225158692ZM220.42564011230468,10.483360422515869C225.04223011230468,10.06456042251587,228.7388401123047,6.367950422515869,229.15764011230468,1.7513604225158692L411.1972401123047,1.7513604225158692L411.1972401123047,88.07516042251586C395.6012401123047,88.69706042251588,383.1162401123047,101.56796042251587,383.1162401123047,117.31496042251587C383.1162401123047,133.06096042251588,395.6012401123047,145.93196042251586,411.1972401123047,146.55396042251587L411.1972401123047,231.11196042251586L229.15764011230468,231.11196042251586C228.7388401123047,226.49496042251587,225.04223011230468,222.79896042251588,220.42564011230468,222.37996042251586L220.42564011230468,187.03496042251587L222.3084001123047,187.03496042251587C251.77574011230467,187.03496042251587,275.7552401123047,163.05496042251588,275.7552401123047,133.58796042251586L275.7552401123047,99.28976042251587C275.7552401123047,69.82246042251587,251.77574011230467,45.84286042251587,222.3084001123047,45.84286042251587L220.42564011230468,45.84286042251587L220.42564011230468,10.483360422515869ZM220.42564011230468,47.57966042251587L220.42564011230468,185.26896042251587L222.3084001123047,185.26896042251587C250.81244011230467,185.26896042251587,274.0038401123047,162.07696042251587,274.0038401123047,133.57296042251588L274.0038401123047,99.27516042251587C274.0038401123047,70.77106042251587,250.81244011230467,47.57966042251587,222.3084001123047,47.57966042251587L220.42564011230468,47.57966042251587ZM603.7052401123046,10.483360422515869C599.0882401123047,10.06456042251587,595.3922401123048,6.367940422515869,594.9732401123047,1.7513604225158692L412.9482401123047,1.7513604225158692L412.9482401123047,88.05706042251587C428.8142401123047,88.36146042251588,441.64224011230465,101.36296042251587,441.64224011230465,117.31496042251587C441.64224011230465,133.26696042251587,428.8282401123047,146.26796042251587,412.9482401123047,146.57196042251587L412.9482401123047,231.11196042251586L594.9722401123047,231.11196042251586C595.3902401123047,226.48396042251588,599.0872401123047,222.79696042251587,603.7052401123046,222.37996042251586L603.7052401123046,187.03496042251587L601.8222401123047,187.03496042251587C572.3552401123047,187.03496042251587,548.3752401123047,163.05496042251588,548.3752401123047,133.58796042251586L548.3752401123047,99.28976042251587C548.3752401123047,69.82246042251587,572.3552401123047,45.84286042251587,601.8222401123047,45.84286042251587L603.7052401123046,45.84286042251587L603.7052401123046,10.483360422515869ZM603.7052401123046,1.7513604225158692L603.7052401123046,8.71317042251587C600.0562401123047,8.31911042251587,597.1522401123048,5.400110422515869,596.7432401123046,1.7513604225158692L603.7052401123046,1.7513604225158692ZM603.7052401123046,47.594260422515866L603.7052401123046,185.28396042251586L601.8222401123047,185.28396042251586C573.3182401123047,185.28396042251586,550.1262401123047,162.09196042251588,550.1262401123047,133.58796042251586L550.1262401123047,99.28976042251587C550.1262401123047,70.78576042251586,573.3182401123047,47.594260422515866,601.8222401123047,47.594260422515866L603.7052401123046,47.594260422515866ZM412.9482401123047,144.80596042251588L412.9482401123047,89.82336042251588C427.8502401123047,90.12736042251586,439.8762401123047,102.34096042251586,439.8762401123047,117.31496042251587C439.8762401123047,132.28896042251586,427.8502401123047,144.50196042251588,412.9482401123047,144.80596042251588ZM411.1972401123047,89.84266042251586C396.57924011230466,90.46376042251588,384.88224011230466,102.54596042251588,384.88224011230466,117.31496042251587C384.88224011230466,132.08296042251587,396.57924011230466,144.16496042251586,411.1972401123047,144.78696042251588L411.1972401123047,89.84266042251586ZM227.4020501123047,231.11196042251586L220.44024011230468,231.11196042251586L220.44024011230468,224.14996042251587C224.08899011230469,224.54396042251588,226.9933901123047,227.46296042251586,227.4020501123047,231.11196042251586ZM603.7052401123046,231.11196042251586L596.7432401123046,231.11196042251586C597.1372401123047,227.46296042251586,600.0562401123047,224.55896042251587,603.7052401123046,224.14996042251587L603.7052401123046,231.11196042251586Z" fillRule="evenodd" fill="#F9F9F9" fillOpacity="1"/></g></g></g></svg>