<svg xmlns="http://www.w3.org/2000/svg" xmlns:xlink="http://www.w3.org/1999/xlink" fill="none" version="1.1" width="16" height="16" viewBox="0 0 16 16"><defs><clipPath id="master_svg0_0_1592/0_3091"><rect x="0" y="0" width="16" height="16" rx="8"/></clipPath></defs><g clip-path="url(#master_svg0_0_1592/0_3091)"><rect x="0" y="0" width="16" height="16" rx="8" fill="#211E1F" fillOpacity="1"/><g><path d="M11.733333969116211,5.814630476837158C12.137083969116212,5.593810476837158,12.285413969116211,5.0874424768371584,12.06458396911621,4.683650476837158C11.84375396911621,4.2798503768371585,11.337413969116211,4.131517476837158,10.93366396911621,4.352350476837159C9.40975396911621,5.185717476837159,8.149663969116212,6.794080476837158,7.302413969116211,8.091330476837157C6.9893339691162115,8.570830476837159,6.7218339691162114,9.02475047683716,6.507833969116211,9.409250476837158C6.308203969116211,9.215580476837157,6.110483969116211,9.047500476837158,5.933653969116211,8.907670476837158C5.702253969116211,8.724750476837158,5.494013969116211,8.580420476837158,5.342193969116211,8.481000476837158C5.342193969116211,8.481000476837158,5.079653969116211,8.317920476837159,5.079653969116211,8.317920476837159C4.679874969116211,8.089920476837158,4.170941969116211,8.229170476837158,3.942932969116211,8.629000476837158C3.714974969116211,9.028670476837158,3.854108169116211,9.537420476837159,4.253682969116211,9.765580476837158C4.253682969116211,9.765580476837158,4.428925969116211,9.875170476837159,4.428925969116211,9.875170476837159C4.547933969116211,9.953080476837158,4.714699969116211,10.068580476837159,4.8999739691162105,10.215080476837159C5.281273969116211,10.516500476837159,5.692713969116211,10.911670476837159,5.951653969116212,11.344580476837159C6.110553969116211,11.610250476837159,6.403663969116211,11.76592047683716,6.712753969116211,11.748920476837158C7.021753969116211,11.731830476837159,7.295913969116211,11.544670476837158,7.424663969116211,11.263250476837158C7.424663969116211,11.263250476837158,7.50658396911621,11.092080476837157,7.50658396911621,11.092080476837157C7.563003969116211,10.976750476837157,7.647503969116211,10.808080476837159,7.757503969116211,10.600330476837158C7.977913969116211,10.183920476837159,8.298413969116211,9.614330476837157,8.69783396911621,9.002670476837158C9.517333969116212,7.747920476837159,10.590503969116211,6.439580476837158,11.733333969116211,5.814630476837158Z" fillRule="evenodd" fill="#FFFFFF" fillOpacity="1"/></g></g></svg>