<svg xmlns="http://www.w3.org/2000/svg" xmlns:xlink="http://www.w3.org/1999/xlink" fill="none" version="1.1" width="32" height="32" viewBox="0 0 32 32"><defs><clipPath id="master_svg0_26_4770"><rect x="0" y="0" width="32" height="32" rx="0"/></clipPath><linearGradient x1="0.5" y1="0" x2="0.5" y2="1" id="master_svg1_26_5877"><stop offset="0%" stop-color="#74DCC9" stop-opacity="1"/><stop offset="97.14285731315613%" stop-color="#4638C1" stop-opacity="1"/><stop offset="100%" stop-color="#888888" stop-opacity="0.6232876777648926"/></linearGradient></defs><g clip-path="url(#master_svg0_26_4770)"><g><path d="M18.97868788604736,21.351999744415284L19.717287886047366,19.879999744415283C20.794687886047363,17.733299744415284,20.913287886047364,15.575999744415283,20.05468788604736,13.810699744415283C19.89008788604736,13.483199744415284,19.69208788604736,13.173599744415283,19.463987886047363,12.886699744415283C21.407787886047362,12.039609744415284,22.665087886047363,10.121619744415284,22.666687886047363,8.001329744415283C22.666687886047363,5.059999744415283,20.274687886047364,2.667999744415283,17.333327886047364,2.667999744415283C14.391997886047363,2.667999744415283,11.999997886047364,5.059999744415283,11.999997886047364,8.001329744415283C11.999997886047364,9.045329744415284,12.311997886047363,10.011999744415284,12.831997886047363,10.835999744415282C10.570667886047364,11.275999744415284,9.090667886047363,12.499999744415284,8.902663886047364,12.669299744415284C8.111978886047364,13.364099744415283,7.804739886047363,14.459399744415283,8.118749886047363,15.463999744415283C8.432759886047362,16.468599744415283,9.309077886047364,17.193899744415283,10.354667886047363,17.314699744415282L9.615997886047364,18.786699744415284C8.538663886047363,20.933299744415283,8.419996886047363,23.090699744415282,9.277327886047363,24.855999744415282C10.030667886047363,26.40799974441528,11.438667886047362,27.462699744415282,13.239997886047362,27.827999744415283C13.790667886047363,27.93999974441528,14.354667886047363,27.997299744415283,14.911997886047363,27.997299744415283C18.069287886047363,27.997299744415283,20.198687886047363,26.201299744415284,20.431987886047363,25.995999744415283C21.223087886047363,25.301499744415285,21.530387886047365,24.205899744415284,21.215987886047365,23.201199744415284C20.901587886047363,22.196599744415284,20.024587886047364,21.471699744415282,18.97868788604736,21.351999744415284ZM17.333337886047364,5.334669744415283C18.806787886047363,5.334529744415283,20.001287886047365,6.529179744415283,20.000887886047366,8.002669744415282C20.000587886047363,9.476149744415284,18.805487886047363,10.670209744415283,17.33199788604736,10.669329744415283C15.859237886047364,10.668459744415284,14.665887886047363,9.474099744415284,14.666257886047363,8.001329744415283C14.666767886047364,6.528419744415283,15.860707886047363,5.334669744415283,17.333337886047364,5.334669744415283ZM14.911997886047363,25.33329974441528C14.550667886047364,25.33329974441528,14.166667886047364,25.299999744415285,13.773327886047364,25.217299744415282C11.583997886047364,24.771999744415282,10.669327886047363,22.639999744415285,12.002667886047362,19.981299744415285L13.335997886047362,17.321299744415285C14.002667886047362,15.993299744415284,13.962667886047363,15.147999744415284,13.191997886047364,14.607999744415283C12.950667886047363,14.441299744415284,12.617327886047363,14.382699744415284,12.273327886047364,14.382699744415284Q11.503997886047364,14.382699744415284,10.671997886047363,14.667999744415283Q12.182667886047362,13.333299744415283,14.421337886047363,13.333299744415283C14.782667886047363,13.333299744415283,15.167997886047363,13.366699744415284,15.562667886047363,13.449299744415283C17.749337886047364,13.894699744415282,18.666687886047363,16.026699744415282,17.333337886047364,18.685299744415282L15.999997886047364,21.342699744415285C15.333337886047364,22.67329974441528,15.370667886047364,23.518699744415283,16.141327886047364,24.055999744415285C16.382667886047365,24.223999744415284,16.718667886047363,24.281299744415282,17.063997886047364,24.281299744415282Q17.833327886047364,24.281299744415282,18.663987886047366,23.998699744415283Q17.153337886047364,25.33329974441528,14.911997886047363,25.33329974441528Z" fill="url(#master_svg1_26_5877)" fillOpacity="1" style="mix-blend-mode:passthrough"/></g></g></svg>