<svg width="22" height="18" viewBox="0 0 22 18" fill="none" xmlns="http://www.w3.org/2000/svg">
<path d="M21.6434 10.0103L17.9177 1.09238C17.7833 0.769795 17.5508 0.493257 17.2505 0.298517C16.9501 0.103776 16.5956 -0.000210929 16.2329 3.21229e-07H13.3732L13.8196 4.57313H16.9919L10.9998 9.32963L5.00779 4.57313H8.18005L8.62652 3.21229e-07H5.76679C5.02424 3.21229e-07 4.35689 0.432 4.08196 1.09238L0.356317 10.0103C0.0180661 10.821 -0.0818905 11.705 0.0672887 12.5662L0.760487 16.5476C0.830875 16.9534 1.04935 17.3221 1.37703 17.588C1.7047 17.854 2.12032 18 2.54988 18H19.4486C20.3357 18 21.0923 17.3857 21.238 16.5476L21.9312 12.5662C22.0826 11.7051 21.983 10.8207 21.6434 10.0103ZM19.1761 14.9006C19.1351 15.1381 19.0073 15.3539 18.8156 15.5094C18.6238 15.665 18.3805 15.7503 18.1292 15.75H3.87048C3.61914 15.7503 3.37587 15.665 3.18411 15.5094C2.99236 15.3539 2.86459 15.1381 2.82363 14.9006L2.39479 12.4335C2.36914 12.2879 2.377 12.1386 2.41781 11.9962C2.45863 11.8538 2.53142 11.7216 2.63111 11.6089C2.73079 11.4962 2.85497 11.4057 2.99496 11.3437C3.13496 11.2817 3.2874 11.2497 3.44163 11.25H18.5592C19.2148 11.25 19.7142 11.8136 19.6061 12.4335L19.1761 14.9006Z" fill="white"/>
</svg>
