<svg xmlns="http://www.w3.org/2000/svg" xmlns:xlink="http://www.w3.org/1999/xlink" fill="none" version="1.1" width="20" height="20" viewBox="0 0 20 20"><defs><linearGradient x1="0.5" y1="-3.0616171314629196e-17" x2="0.5" y2="1" id="master_svg0_0_2484"><stop offset="0%" stop-color="#FEE17D" stop-opacity="1"/><stop offset="100%" stop-color="#C76768" stop-opacity="1"/></linearGradient></defs><g><g><path d="M9.548656494140625,1.2354397529296874C9.715746494140625,1.0601896529296875,9.968996494140626,0.9971979529296875,10.198746494140625,1.0737646529296876C12.869456494140625,1.9639817529296875,15.318156494140625,4.219151752929688,16.603956494140625,6.810501752929688C17.989656494140625,9.432091752929688,18.041156494140623,12.357271752929687,16.935056494140625,14.694371752929687C15.820856494140624,17.04887175292969,13.547856494140625,18.766371752929686,10.403656494140625,18.95717175292969C10.390996494140625,18.957971752929687,10.378406494140625,18.958371752929686,10.365746494140625,18.958371752929686C2.256225894140625,18.958371752929686,-0.6021735058593749,9.305841752929688,5.794946494140625,4.865641752929688C5.986036494140626,4.733011752929688,6.234966494140625,4.717471752929688,6.441056494140625,4.825301752929688C6.647156494140625,4.933121752929687,6.776326494140625,5.146481752929687,6.776326494140625,5.379081752929688C6.776326494140625,6.179461752929687,6.860996494140625,6.7522117529296874,6.985216494140625,7.143151752929687C7.110826494140625,7.5384817529296875,7.258296494140625,7.6928317529296875,7.342796494140625,7.7476817529296875C7.407116494140625,7.789431752929688,7.492876494140625,7.812991752929688,7.647896494140625,7.763631752929688C7.819266494140625,7.709061752929688,8.045946494140626,7.569761752929687,8.298366494140625,7.315451752929688C8.800996494140625,6.809051752929688,9.288656494140625,5.9634517529296875,9.542996494140624,4.968391752929687C9.795746494140625,3.9792017529296877,9.805406494140625,2.8919717529296873,9.418246494140625,1.8924397529296875C9.330826494140625,1.6666647529296874,9.381656494140625,1.4106897529296876,9.548656494140625,1.2354397529296874Z" fill="#FEE07C" fillOpacity="1"/><path d="M9.548656494140625,1.2354397529296874C9.715746494140625,1.0601896529296875,9.968996494140626,0.9971979529296875,10.198746494140625,1.0737646529296876C12.869456494140625,1.9639817529296875,15.318156494140625,4.219151752929688,16.603956494140625,6.810501752929688C17.989656494140625,9.432091752929688,18.041156494140623,12.357271752929687,16.935056494140625,14.694371752929687C15.820856494140624,17.04887175292969,13.547856494140625,18.766371752929686,10.403656494140625,18.95717175292969C10.390996494140625,18.957971752929687,10.378406494140625,18.958371752929686,10.365746494140625,18.958371752929686C2.256225894140625,18.958371752929686,-0.6021735058593749,9.305841752929688,5.794946494140625,4.865641752929688C5.986036494140626,4.733011752929688,6.234966494140625,4.717471752929688,6.441056494140625,4.825301752929688C6.647156494140625,4.933121752929687,6.776326494140625,5.146481752929687,6.776326494140625,5.379081752929688C6.776326494140625,6.179461752929687,6.860996494140625,6.7522117529296874,6.985216494140625,7.143151752929687C7.110826494140625,7.5384817529296875,7.258296494140625,7.6928317529296875,7.342796494140625,7.7476817529296875C7.407116494140625,7.789431752929688,7.492876494140625,7.812991752929688,7.647896494140625,7.763631752929688C7.819266494140625,7.709061752929688,8.045946494140626,7.569761752929687,8.298366494140625,7.315451752929688C8.800996494140625,6.809051752929688,9.288656494140625,5.9634517529296875,9.542996494140624,4.968391752929687C9.795746494140625,3.9792017529296877,9.805406494140625,2.8919717529296873,9.418246494140625,1.8924397529296875C9.330826494140625,1.6666647529296874,9.381656494140625,1.4106897529296876,9.548656494140625,1.2354397529296874Z" fill="url(#master_svg0_0_2484)" fillOpacity="1"/></g></g></svg>
