<svg xmlns="http://www.w3.org/2000/svg" xmlns:xlink="http://www.w3.org/1999/xlink" fill="none" version="1.1" width="24" height="24" viewBox="0 0 24 24"><defs><clipPath id="master_svg0_0_1900/0_2821"><rect x="0" y="0" width="24" height="24" rx="0"/></clipPath></defs><g clip-path="url(#master_svg0_0_1900/0_2821)"><g><path d="M2.25,6.333336746139526L2.25,6.9999967461395265Q2.25,7.073866746139526,2.264411,7.146316746139526Q2.278822,7.218766746139526,2.30709,7.2870167461395265Q2.335359,7.355256746139526,2.376398,7.416676746139526Q2.417437,7.478096746139526,2.46967,7.530326746139526Q2.521903,7.582566746139527,2.583322,7.623596746139526Q2.644742,7.664636746139527,2.712987,7.692906746139526Q2.781233,7.721176746139526,2.853682,7.735586746139527Q2.9261315,7.7499967461395265,3,7.7499967461395265Q3.0738685,7.7499967461395265,3.146318,7.735586746139527Q3.218767,7.721176746139526,3.287013,7.692906746139526Q3.355258,7.664636746139527,3.416678,7.623606746139526Q3.478097,7.582566746139527,3.53033,7.530326746139526Q3.582563,7.478096746139526,3.623602,7.416676746139526Q3.664641,7.355256746139526,3.69291,7.2870167461395265Q3.721178,7.218766746139526,3.735589,7.146316746139526Q3.75,7.073866746139526,3.75,6.9999967461395265L3.75,6.333336746139526Q3.75,4.416666746139526,5.66667,4.416666746139526L18.3333,4.416666746139526Q20.25,4.416666746139526,20.25,6.333336746139526L20.25,14.999966746139526Q20.25,16.916666746139526,18.3333,16.916666746139526L8,16.916666746139526Q7.87227,16.916666746139526,7.75175,16.958966746139524Q7.63122,17.001266746139528,7.53148,17.080966746139527L3.75,20.106166746139525L3.75,12.333336746139526Q3.75,12.091996746139527,3.920996,11.920996746139526Q4.09199,11.749996746139526,4.33333,11.749996746139526L12.52267,11.749996746139526L10.47006,13.802566746139526L10.46967,13.802966746139527Q10.364180000000001,13.908466746139526,10.307089999999999,14.046366746139526Q10.25,14.184166746139526,10.25,14.333366746139527Q10.25,14.407166746139527,10.26441,14.479666746139527Q10.27882,14.552066746139527,10.307089999999999,14.620366746139526Q10.33536,14.688566746139527,10.3764,14.749966746139526Q10.41744,14.811466746139526,10.46967,14.863666746139526Q10.521899999999999,14.915866746139526,10.58332,14.956966746139527Q10.644739999999999,14.997966746139527,10.71299,15.026266746139527Q10.78123,15.054466746139527,10.85368,15.068966746139527Q10.92613,15.083366746139527,11,15.083366746139527Q11.14918,15.083366746139527,11.28701,15.026266746139527Q11.42484,14.969166746139527,11.53033,14.863666746139526L11.53096,14.863066746139527L14.8637,11.530326746139526Q14.9692,11.424836746139526,15.0262,11.287016746139527Q15.0833,11.149186746139527,15.0833,10.999996746139526Q15.0833,10.850816746139525,15.0262,10.712986746139526Q14.9692,10.575156746139527,14.8637,10.469666746139527L11.53082,7.136826746139526L11.53033,7.136336746139526Q11.42484,7.0308467461395265,11.28701,6.973756746139527Q11.14918,6.916666746139526,11,6.916666746139526Q10.92613,6.916666746139526,10.85368,6.931076746139526Q10.78123,6.945486746139526,10.71299,6.973756746139527Q10.644739999999999,7.002026746139526,10.58332,7.043066746139527Q10.521899999999999,7.084106746139526,10.46967,7.136336746139526Q10.41744,7.188566746139527,10.3764,7.249986746139527Q10.33536,7.311406746139527,10.307089999999999,7.379656746139526Q10.27882,7.447896746139526,10.26441,7.520346746139527Q10.25,7.592796746139527,10.25,7.666666746139526Q10.25,7.815846746139527,10.307089999999999,7.953676746139527Q10.364180000000001,8.091506746139526,10.46967,8.196996746139526L12.52267,10.249996746139526L4.33333,10.249996746139526Q3.470674,10.249996746139526,2.860337,10.860336746139527Q2.25,11.470676746139526,2.25,12.333336746139526L2.25,21.666666746139526Q2.25,21.794366746139527,2.2922789999999997,21.914966746139527Q2.334557,22.035466746139527,2.414348,22.135166746139525Q2.4604939999999997,22.192866746139526,2.517006,22.240466746139525Q2.573517,22.287966746139528,2.638224,22.323666746139526Q2.70293,22.359266746139525,2.773345,22.381566746139526Q2.84376,22.403966746139528,2.9171763,22.412066746139526Q2.99059309,22.420266746139525,3.0641906,22.413866746139526Q3.137788,22.407566746139526,3.208738,22.387066746139528Q3.279688,22.366466746139526,3.3452640000000002,22.332466746139527Q3.41084,22.298466746139525,3.468521,22.252366746139526L8.26309,18.416666746139526L18.3333,18.416666746139526Q19.749,18.416666746139526,20.7495,17.416166746139524Q21.75,16.41566674613953,21.75,14.999966746139526L21.75,6.333336746139526Q21.75,4.917666746139526,20.7495,3.9171697461395265Q19.749,2.9166667461395264,18.3333,2.9166667461395264L5.66667,2.9166667461395264Q4.25101,2.9166667461395264,3.250503,3.9171697461395265Q2.25,4.917676746139526,2.25,6.333336746139526Z" fillRule="evenodd" fill="#F9F9F9" fillOpacity="1"/></g></g></svg>