<svg width="360" height="288" viewBox="0 0 360 288" fill="none" xmlns="http://www.w3.org/2000/svg">
<g filter="url(#filter0_bi_12628_5082)">
<path d="M0 256C0 273.673 14.3269 288 32 288H328C345.673 288 360 273.673 360 256V80C360 62.3269 345.673 48 328 48H181.298C170.968 48 161.797 41.3897 158.53 31.5895L153.47 16.4105C150.203 6.61032 141.032 0 130.702 0H32C14.3269 0 0 14.3269 0 32V256Z" fill="url(#paint0_linear_12628_5082)" fillOpacity="0.96"/>
<path d="M0 256C0 273.673 14.3269 288 32 288H328C345.673 288 360 273.673 360 256V80C360 62.3269 345.673 48 328 48H181.298C170.968 48 161.797 41.3897 158.53 31.5895L153.47 16.4105C150.203 6.61032 141.032 0 130.702 0H32C14.3269 0 0 14.3269 0 32V256Z" fill="url(#paint1_radial_12628_5082)"/>
<path d="M0 256C0 273.673 14.3269 288 32 288H328C345.673 288 360 273.673 360 256V80C360 62.3269 345.673 48 328 48H181.298C170.968 48 161.797 41.3897 158.53 31.5895L153.47 16.4105C150.203 6.61032 141.032 0 130.702 0H32C14.3269 0 0 14.3269 0 32V256Z" fill="url(#paint2_radial_12628_5082)" style="mix-blend-mode:color-dodge"/>
<path d="M0 256C0 273.673 14.3269 288 32 288H328C345.673 288 360 273.673 360 256V80C360 62.3269 345.673 48 328 48H181.298C170.968 48 161.797 41.3897 158.53 31.5895L153.47 16.4105C150.203 6.61032 141.032 0 130.702 0H32C14.3269 0 0 14.3269 0 32V256Z" fill="url(#paint3_radial_12628_5082)" fillOpacity="0.64" style="mix-blend-mode:overlay"/>
</g>
<path d="M64 0H96C96 2.20914 94.2091 4 92 4H68C65.7909 4 64 2.20914 64 0Z" fill="#77E5CA"/>
<defs>
<filter id="filter0_bi_12628_5082" x="-32" y="-32" width="424" height="352" filterUnits="userSpaceOnUse" color-interpolation-filters="sRGB">
<feFlood flood-opacity="0" result="BackgroundImageFix"/>
<feGaussianBlur in="BackgroundImageFix" stdDeviation="16"/>
<feComposite in2="SourceAlpha" operator="in" result="effect1_backgroundBlur_12628_5082"/>
<feBlend mode="normal" in="SourceGraphic" in2="effect1_backgroundBlur_12628_5082" result="shape"/>
<feColorMatrix in="SourceAlpha" type="matrix" values="0 0 0 0 0 0 0 0 0 0 0 0 0 0 0 0 0 0 127 0" result="hardAlpha"/>
<feOffset dy="1"/>
<feGaussianBlur stdDeviation="0.5"/>
<feComposite in2="hardAlpha" operator="arithmetic" k2="-1" k3="1"/>
<feColorMatrix type="matrix" values="0 0 0 0 1 0 0 0 0 1 0 0 0 0 1 0 0 0 0.24 0"/>
<feBlend mode="normal" in2="shape" result="effect2_innerShadow_12628_5082"/>
</filter>
<linearGradient id="paint0_linear_12628_5082" x1="180" y1="288" x2="180" y2="0" gradientUnits="userSpaceOnUse">
<stop offset="1" stop-color="#1E1E1E"/>
</linearGradient>
<radialGradient id="paint1_radial_12628_5082" cx="0" cy="0" r="1" gradientUnits="userSpaceOnUse" gradientTransform="rotate(38.6598) scale(461.025 449.811)">
<stop stop-color="#FDF06F" stop-opacity="0.07"/>
<stop offset="0.555884" stop-color="#FDF06F" stop-opacity="0"/>
</radialGradient>
<radialGradient id="paint2_radial_12628_5082" cx="0" cy="0" r="1" gradientUnits="userSpaceOnUse" gradientTransform="rotate(38.6598) scale(461.025 454.596)">
<stop stop-color="white" stop-opacity="0.08"/>
<stop offset="0.738467" stop-color="white" stop-opacity="0"/>
</radialGradient>
<radialGradient id="paint3_radial_12628_5082" cx="0" cy="0" r="1" gradientUnits="userSpaceOnUse" gradientTransform="rotate(45) scale(353.553 353.553)">
<stop stop-color="white"/>
<stop offset="1" stop-color="white" stop-opacity="0"/>
</radialGradient>
</defs>
</svg>
