<svg width="22" height="23" viewBox="0 0 22 23" fill="none" xmlns="http://www.w3.org/2000/svg">
<g filter="url(#filter0_d_12590_2079)">
<path d="M14.0839 2.8088L13.2199 4.32791C12.8659 4.95034 12.2062 5.33602 11.4901 5.33912L10.553 5.34318C9.83595 5.34629 9.17209 4.96526 8.81307 4.34452L7.92329 2.80609C9.78916 1.87934 12.1162 1.8481 14.0839 2.8088Z" fill="url(#paint0_linear_12590_2079)" fillOpacity="0.24" style="mix-blend-mode:plus-lighter" shape-rendering="crispEdges"/>
<path d="M14.0839 2.8088L13.2199 4.32791C12.8659 4.95034 12.2062 5.33602 11.4901 5.33912L10.553 5.34318C9.83595 5.34629 9.17209 4.96526 8.81307 4.34452L7.92329 2.80609C9.78916 1.87934 12.1162 1.8481 14.0839 2.8088Z" fill="url(#paint1_radial_12590_2079)" shape-rendering="crispEdges"/>
<path d="M14.0839 2.8088L13.2199 4.32791C12.8659 4.95034 12.2062 5.33602 11.4901 5.33912L10.553 5.34318C9.83595 5.34629 9.17209 4.96526 8.81307 4.34452L7.92329 2.80609C9.78916 1.87934 12.1162 1.8481 14.0839 2.8088Z" fill="url(#paint2_radial_12590_2079)" style="mix-blend-mode:color-dodge" shape-rendering="crispEdges"/>
<path d="M17.9918 8.59945H16.2746C15.5617 8.59945 14.9027 8.21996 14.5449 7.60336L14.0926 6.82417C13.7355 6.20878 13.7322 5.44998 14.0839 4.83149L14.948 3.31227C16.8792 4.62533 17.956 6.86953 17.9918 8.59945Z" fill="url(#paint3_linear_12590_2079)" fillOpacity="0.24" style="mix-blend-mode:plus-lighter" shape-rendering="crispEdges"/>
<path d="M17.9918 8.59945H16.2746C15.5617 8.59945 14.9027 8.21996 14.5449 7.60336L14.0926 6.82417C13.7355 6.20878 13.7322 5.44998 14.0839 4.83149L14.948 3.31227C16.8792 4.62533 17.956 6.86953 17.9918 8.59945Z" fill="url(#paint4_radial_12590_2079)" shape-rendering="crispEdges"/>
<path d="M17.9918 8.59945H16.2746C15.5617 8.59945 14.9027 8.21996 14.5449 7.60336L14.0926 6.82417C13.7355 6.20878 13.7322 5.44998 14.0839 4.83149L14.948 3.31227C16.8792 4.62533 17.956 6.86953 17.9918 8.59945Z" fill="url(#paint5_radial_12590_2079)" style="mix-blend-mode:color-dodge" shape-rendering="crispEdges"/>
<path d="M14.9684 14.8774L14.1012 13.3909C13.74 12.7716 13.7379 12.0063 14.0957 11.385L14.5471 10.6013C14.9041 9.98144 15.5649 9.59945 16.2802 9.59945H17.9907C17.9673 10.1544 17.7411 11.3517 17.1836 12.3948C16.441 13.789 15.3279 14.6376 14.9684 14.8774Z" fill="url(#paint6_linear_12590_2079)" fillOpacity="0.24" style="mix-blend-mode:plus-lighter" shape-rendering="crispEdges"/>
<path d="M14.9684 14.8774L14.1012 13.3909C13.74 12.7716 13.7379 12.0063 14.0957 11.385L14.5471 10.6013C14.9041 9.98144 15.5649 9.59945 16.2802 9.59945H17.9907C17.9673 10.1544 17.7411 11.3517 17.1836 12.3948C16.441 13.789 15.3279 14.6376 14.9684 14.8774Z" fill="url(#paint7_radial_12590_2079)" shape-rendering="crispEdges"/>
<path d="M14.9684 14.8774L14.1012 13.3909C13.74 12.7716 13.7379 12.0063 14.0957 11.385L14.5471 10.6013C14.9041 9.98144 15.5649 9.59945 16.2802 9.59945H17.9907C17.9673 10.1544 17.7411 11.3517 17.1836 12.3948C16.441 13.789 15.3279 14.6376 14.9684 14.8774Z" fill="url(#paint8_radial_12590_2079)" style="mix-blend-mode:color-dodge" shape-rendering="crispEdges"/>
<path d="M7.9608 15.4072L8.82066 13.9C9.17656 13.2762 9.83962 12.8911 10.5578 12.8911H11.5033C12.2146 12.8911 12.8724 13.2689 13.2308 13.8834L14.1053 15.3825C12.3317 16.2753 10.008 16.3904 7.9608 15.4072Z" fill="url(#paint9_linear_12590_2079)" fillOpacity="0.24" style="mix-blend-mode:plus-lighter" shape-rendering="crispEdges"/>
<path d="M7.9608 15.4072L8.82066 13.9C9.17656 13.2762 9.83962 12.8911 10.5578 12.8911H11.5033C12.2146 12.8911 12.8724 13.2689 13.2308 13.8834L14.1053 15.3825C12.3317 16.2753 10.008 16.3904 7.9608 15.4072Z" fill="url(#paint10_radial_12590_2079)" shape-rendering="crispEdges"/>
<path d="M7.9608 15.4072L8.82066 13.9C9.17656 13.2762 9.83962 12.8911 10.5578 12.8911H11.5033C12.2146 12.8911 12.8724 13.2689 13.2308 13.8834L14.1053 15.3825C12.3317 16.2753 10.008 16.3904 7.9608 15.4072Z" fill="url(#paint11_radial_12590_2079)" style="mix-blend-mode:color-dodge" shape-rendering="crispEdges"/>
<path d="M4.0166 9.59945H5.73897C6.4475 9.59945 7.10314 9.97433 7.46255 10.5849L7.94005 11.3962C8.30369 12.014 8.30887 12.7791 7.95364 13.4018L7.09371 14.9091C6.16737 14.279 5.38624 13.4435 4.82977 12.3986L4.82922 12.3978C4.39486 11.5912 4.08461 10.5902 4.0166 9.59945Z" fill="url(#paint12_linear_12590_2079)" fillOpacity="0.24" style="mix-blend-mode:plus-lighter" shape-rendering="crispEdges"/>
<path d="M4.0166 9.59945H5.73897C6.4475 9.59945 7.10314 9.97433 7.46255 10.5849L7.94005 11.3962C8.30369 12.014 8.30887 12.7791 7.95364 13.4018L7.09371 14.9091C6.16737 14.279 5.38624 13.4435 4.82977 12.3986L4.82922 12.3978C4.39486 11.5912 4.08461 10.5902 4.0166 9.59945Z" fill="url(#paint13_radial_12590_2079)" shape-rendering="crispEdges"/>
<path d="M4.0166 9.59945H5.73897C6.4475 9.59945 7.10314 9.97433 7.46255 10.5849L7.94005 11.3962C8.30369 12.014 8.30887 12.7791 7.95364 13.4018L7.09371 14.9091C6.16737 14.279 5.38624 13.4435 4.82977 12.3986L4.82922 12.3978C4.39486 11.5912 4.08461 10.5902 4.0166 9.59945Z" fill="url(#paint14_radial_12590_2079)" style="mix-blend-mode:color-dodge" shape-rendering="crispEdges"/>
<path d="M7.05933 3.30967L7.93805 4.82896C8.30107 5.45662 8.29594 6.23161 7.92465 6.85441L7.46611 7.62358C7.10534 8.22875 6.45276 8.59945 5.74822 8.59945H4.01172C4.04975 6.87038 5.19245 4.58084 7.05933 3.30967Z" fill="url(#paint15_linear_12590_2079)" fillOpacity="0.24" style="mix-blend-mode:plus-lighter" shape-rendering="crispEdges"/>
<path d="M7.05933 3.30967L7.93805 4.82896C8.30107 5.45662 8.29594 6.23161 7.92465 6.85441L7.46611 7.62358C7.10534 8.22875 6.45276 8.59945 5.74822 8.59945H4.01172C4.04975 6.87038 5.19245 4.58084 7.05933 3.30967Z" fill="url(#paint16_radial_12590_2079)" shape-rendering="crispEdges"/>
<path d="M7.05933 3.30967L7.93805 4.82896C8.30107 5.45662 8.29594 6.23161 7.92465 6.85441L7.46611 7.62358C7.10534 8.22875 6.45276 8.59945 5.74822 8.59945H4.01172C4.04975 6.87038 5.19245 4.58084 7.05933 3.30967Z" fill="url(#paint17_radial_12590_2079)" style="mix-blend-mode:color-dodge" shape-rendering="crispEdges"/>
<path d="M8.35049 10.1221C7.97991 9.4925 7.98209 8.71095 8.35618 8.08344L8.8118 7.31918C9.17099 6.71667 9.81958 6.34637 10.521 6.34333L11.4946 6.33911C12.2106 6.33601 12.8736 6.71591 13.233 7.33518L13.6771 8.10032C14.0362 8.71906 14.0374 9.48249 13.6804 10.1024L13.2272 10.8893C12.8702 11.5091 12.2094 11.8911 11.4941 11.8911H10.5353C9.82675 11.8911 9.1711 11.5162 8.81169 10.9056L8.35049 10.1221Z" fill="url(#paint18_linear_12590_2079)" fillOpacity="0.24" style="mix-blend-mode:plus-lighter" shape-rendering="crispEdges"/>
<path d="M8.35049 10.1221C7.97991 9.4925 7.98209 8.71095 8.35618 8.08344L8.8118 7.31918C9.17099 6.71667 9.81958 6.34637 10.521 6.34333L11.4946 6.33911C12.2106 6.33601 12.8736 6.71591 13.233 7.33518L13.6771 8.10032C14.0362 8.71906 14.0374 9.48249 13.6804 10.1024L13.2272 10.8893C12.8702 11.5091 12.2094 11.8911 11.4941 11.8911H10.5353C9.82675 11.8911 9.1711 11.5162 8.81169 10.9056L8.35049 10.1221Z" fill="url(#paint19_radial_12590_2079)" shape-rendering="crispEdges"/>
<path d="M8.35049 10.1221C7.97991 9.4925 7.98209 8.71095 8.35618 8.08344L8.8118 7.31918C9.17099 6.71667 9.81958 6.34637 10.521 6.34333L11.4946 6.33911C12.2106 6.33601 12.8736 6.71591 13.233 7.33518L13.6771 8.10032C14.0362 8.71906 14.0374 9.48249 13.6804 10.1024L13.2272 10.8893C12.8702 11.5091 12.2094 11.8911 11.4941 11.8911H10.5353C9.82675 11.8911 9.1711 11.5162 8.81169 10.9056L8.35049 10.1221Z" fill="url(#paint20_radial_12590_2079)" style="mix-blend-mode:color-dodge" shape-rendering="crispEdges"/>
</g>
<defs>
<filter id="filter0_d_12590_2079" x="0.0117188" y="0.0996094" width="21.9805" height="22" filterUnits="userSpaceOnUse" color-interpolation-filters="sRGB">
<feFlood flood-opacity="0" result="BackgroundImageFix"/>
<feColorMatrix in="SourceAlpha" type="matrix" values="0 0 0 0 0 0 0 0 0 0 0 0 0 0 0 0 0 0 127 0" result="hardAlpha"/>
<feOffset dy="2"/>
<feGaussianBlur stdDeviation="2"/>
<feComposite in2="hardAlpha" operator="out"/>
<feColorMatrix type="matrix" values="0 0 0 0 0.0156863 0 0 0 0 0.0980392 0 0 0 0 0.0784314 0 0 0 0.24 0"/>
<feBlend mode="normal" in2="BackgroundImageFix" result="effect1_dropShadow_12590_2079"/>
<feBlend mode="normal" in="SourceGraphic" in2="effect1_dropShadow_12590_2079" result="shape"/>
</filter>
<linearGradient id="paint0_linear_12590_2079" x1="11.0018" y1="2.09961" x2="11.0018" y2="16.0993" gradientUnits="userSpaceOnUse">
<stop stop-color="#E5DDDB"/>
<stop offset="1" stop-color="#F9F9F9"/>
</linearGradient>
<radialGradient id="paint1_radial_12590_2079" cx="0" cy="0" r="1" gradientUnits="userSpaceOnUse" gradientTransform="translate(4.01172 16.0993) rotate(-45.0402) scale(19.7847 19.786)">
<stop stop-color="#FDF06F" stop-opacity="0.07"/>
<stop offset="0.555884" stop-color="#FDF06F" stop-opacity="0"/>
</radialGradient>
<radialGradient id="paint2_radial_12590_2079" cx="0" cy="0" r="1" gradientUnits="userSpaceOnUse" gradientTransform="translate(4.01172 16.0993) rotate(-45.0402) scale(19.7847 19.9965)">
<stop stop-color="white" stop-opacity="0.08"/>
<stop offset="0.738467" stop-color="white" stop-opacity="0"/>
</radialGradient>
<linearGradient id="paint3_linear_12590_2079" x1="11.0018" y1="2.09961" x2="11.0018" y2="16.0993" gradientUnits="userSpaceOnUse">
<stop stop-color="#E5DDDB"/>
<stop offset="1" stop-color="#F9F9F9"/>
</linearGradient>
<radialGradient id="paint4_radial_12590_2079" cx="0" cy="0" r="1" gradientUnits="userSpaceOnUse" gradientTransform="translate(4.01172 16.0993) rotate(-45.0402) scale(19.7847 19.786)">
<stop stop-color="#FDF06F" stop-opacity="0.07"/>
<stop offset="0.555884" stop-color="#FDF06F" stop-opacity="0"/>
</radialGradient>
<radialGradient id="paint5_radial_12590_2079" cx="0" cy="0" r="1" gradientUnits="userSpaceOnUse" gradientTransform="translate(4.01172 16.0993) rotate(-45.0402) scale(19.7847 19.9965)">
<stop stop-color="white" stop-opacity="0.08"/>
<stop offset="0.738467" stop-color="white" stop-opacity="0"/>
</radialGradient>
<linearGradient id="paint6_linear_12590_2079" x1="11.0018" y1="2.09961" x2="11.0018" y2="16.0993" gradientUnits="userSpaceOnUse">
<stop stop-color="#E5DDDB"/>
<stop offset="1" stop-color="#F9F9F9"/>
</linearGradient>
<radialGradient id="paint7_radial_12590_2079" cx="0" cy="0" r="1" gradientUnits="userSpaceOnUse" gradientTransform="translate(4.01172 16.0993) rotate(-45.0402) scale(19.7847 19.786)">
<stop stop-color="#FDF06F" stop-opacity="0.07"/>
<stop offset="0.555884" stop-color="#FDF06F" stop-opacity="0"/>
</radialGradient>
<radialGradient id="paint8_radial_12590_2079" cx="0" cy="0" r="1" gradientUnits="userSpaceOnUse" gradientTransform="translate(4.01172 16.0993) rotate(-45.0402) scale(19.7847 19.9965)">
<stop stop-color="white" stop-opacity="0.08"/>
<stop offset="0.738467" stop-color="white" stop-opacity="0"/>
</radialGradient>
<linearGradient id="paint9_linear_12590_2079" x1="11.0018" y1="2.09961" x2="11.0018" y2="16.0993" gradientUnits="userSpaceOnUse">
<stop stop-color="#E5DDDB"/>
<stop offset="1" stop-color="#F9F9F9"/>
</linearGradient>
<radialGradient id="paint10_radial_12590_2079" cx="0" cy="0" r="1" gradientUnits="userSpaceOnUse" gradientTransform="translate(4.01172 16.0993) rotate(-45.0402) scale(19.7847 19.786)">
<stop stop-color="#FDF06F" stop-opacity="0.07"/>
<stop offset="0.555884" stop-color="#FDF06F" stop-opacity="0"/>
</radialGradient>
<radialGradient id="paint11_radial_12590_2079" cx="0" cy="0" r="1" gradientUnits="userSpaceOnUse" gradientTransform="translate(4.01172 16.0993) rotate(-45.0402) scale(19.7847 19.9965)">
<stop stop-color="white" stop-opacity="0.08"/>
<stop offset="0.738467" stop-color="white" stop-opacity="0"/>
</radialGradient>
<linearGradient id="paint12_linear_12590_2079" x1="11.0018" y1="2.09961" x2="11.0018" y2="16.0993" gradientUnits="userSpaceOnUse">
<stop stop-color="#E5DDDB"/>
<stop offset="1" stop-color="#F9F9F9"/>
</linearGradient>
<radialGradient id="paint13_radial_12590_2079" cx="0" cy="0" r="1" gradientUnits="userSpaceOnUse" gradientTransform="translate(4.01172 16.0993) rotate(-45.0402) scale(19.7847 19.786)">
<stop stop-color="#FDF06F" stop-opacity="0.07"/>
<stop offset="0.555884" stop-color="#FDF06F" stop-opacity="0"/>
</radialGradient>
<radialGradient id="paint14_radial_12590_2079" cx="0" cy="0" r="1" gradientUnits="userSpaceOnUse" gradientTransform="translate(4.01172 16.0993) rotate(-45.0402) scale(19.7847 19.9965)">
<stop stop-color="white" stop-opacity="0.08"/>
<stop offset="0.738467" stop-color="white" stop-opacity="0"/>
</radialGradient>
<linearGradient id="paint15_linear_12590_2079" x1="11.0018" y1="2.09961" x2="11.0018" y2="16.0993" gradientUnits="userSpaceOnUse">
<stop stop-color="#E5DDDB"/>
<stop offset="1" stop-color="#F9F9F9"/>
</linearGradient>
<radialGradient id="paint16_radial_12590_2079" cx="0" cy="0" r="1" gradientUnits="userSpaceOnUse" gradientTransform="translate(4.01172 16.0993) rotate(-45.0402) scale(19.7847 19.786)">
<stop stop-color="#FDF06F" stop-opacity="0.07"/>
<stop offset="0.555884" stop-color="#FDF06F" stop-opacity="0"/>
</radialGradient>
<radialGradient id="paint17_radial_12590_2079" cx="0" cy="0" r="1" gradientUnits="userSpaceOnUse" gradientTransform="translate(4.01172 16.0993) rotate(-45.0402) scale(19.7847 19.9965)">
<stop stop-color="white" stop-opacity="0.08"/>
<stop offset="0.738467" stop-color="white" stop-opacity="0"/>
</radialGradient>
<linearGradient id="paint18_linear_12590_2079" x1="11.0018" y1="2.09961" x2="11.0018" y2="16.0993" gradientUnits="userSpaceOnUse">
<stop stop-color="#E5DDDB"/>
<stop offset="1" stop-color="#F9F9F9"/>
</linearGradient>
<radialGradient id="paint19_radial_12590_2079" cx="0" cy="0" r="1" gradientUnits="userSpaceOnUse" gradientTransform="translate(4.01172 16.0993) rotate(-45.0402) scale(19.7847 19.786)">
<stop stop-color="#FDF06F" stop-opacity="0.07"/>
<stop offset="0.555884" stop-color="#FDF06F" stop-opacity="0"/>
</radialGradient>
<radialGradient id="paint20_radial_12590_2079" cx="0" cy="0" r="1" gradientUnits="userSpaceOnUse" gradientTransform="translate(4.01172 16.0993) rotate(-45.0402) scale(19.7847 19.9965)">
<stop stop-color="white" stop-opacity="0.08"/>
<stop offset="0.738467" stop-color="white" stop-opacity="0"/>
</radialGradient>
</defs>
</svg>
