<svg xmlns="http://www.w3.org/2000/svg" xmlns:xlink="http://www.w3.org/1999/xlink" fill="none" version="1.1" width="500" height="402" viewBox="0 0 500 402"><defs><filter id="master_svg0_50_6927" filterUnits="objectBoundingBox" color-interpolation-filters="sRGB" x="0" y="0" width="499.9999694824219" height="400"><feFlood flood-opacity="0" result="BackgroundImageFix"/><feBlend mode="normal" in="SourceGraphic" in2="BackgroundImageFix" result="shape"/><feColorMatrix in="SourceAlpha" type="matrix" result="hardAlpha" values="0 0 0 0 0 0 0 0 0 0 0 0 0 0 0 0 0 0 127 0"/><feOffset dy="1" dx="0"/><feGaussianBlur stdDeviation="0.5"/><feComposite in2="hardAlpha" operator="arithmetic" k2="-1" k3="1"/><feColorMatrix type="matrix" values="0 0 0 0 1 0 0 0 0 1 0 0 0 0 1 0 0 0 0.23999999463558197 0"/><feBlend mode="normal" in2="shape" result="effect1_innerShadow"/></filter><linearGradient x1="0.5" y1="0" x2="0.5" y2="1" id="master_svg1_0_2857"><stop offset="0%" stop-color="#E5DDDB" stop-opacity="1"/><stop offset="100%" stop-color="#F9F9F9" stop-opacity="1"/></linearGradient><radialGradient cx="0" cy="0" r="1" gradientUnits="userSpaceOnUse" id="master_svg2_0_2858" gradientTransform="translate(-0.000015104672145951144 802.0000476837158) rotate(141.3401875525547) scale(640.312403330017 638.4841942731767)"><stop offset="0%" stop-color="#FDF06F" stop-opacity="0.07000000029802322"/><stop offset="55.58843016624451%" stop-color="#FDF06F" stop-opacity="0"/><stop offset="100%" stop-color="#FDF06F" stop-opacity="0"/></radialGradient><radialGradient cx="0" cy="0" r="1" gradientUnits="userSpaceOnUse" id="master_svg3_0_2859" gradientTransform="translate(4.715194613402106e-8 801.9999761581421) rotate(141.3401917032926) scale(640.31238498235 645.2766491374031)"><stop offset="0%" stop-color="#FFFFFF" stop-opacity="0.07999999821186066"/><stop offset="73.8467276096344%" stop-color="#FFFFFF" stop-opacity="0"/><stop offset="100%" stop-color="#FFFFFF" stop-opacity="0"/></radialGradient><filter id="master_svg4_50_6928" filterUnits="objectBoundingBox" color-interpolation-filters="sRGB" x="-4" y="-3" width="52.44444274902344" height="13.55555534362793"><feFlood flood-opacity="0" result="BackgroundImageFix"/><feColorMatrix in="SourceAlpha" type="matrix" values="0 0 0 0 0 0 0 0 0 0 0 0 0 0 0 0 0 0 127 0"/><feOffset dy="1" dx="0"/><feGaussianBlur stdDeviation="1"/><feColorMatrix type="matrix" values="0 0 0 0 0.46666666865348816 0 0 0 0 0.8980392217636108 0 0 0 0 0.7921568751335144 0 0 0 0.3199999928474426 0"/><feBlend mode="normal" in2="BackgroundImageFix" result="effect1_dropShadow"/><feBlend mode="normal" in="SourceGraphic" in2="effect1_dropShadow" result="shape"/><feColorMatrix in="SourceAlpha" type="matrix" result="hardAlpha" values="0 0 0 0 0 0 0 0 0 0 0 0 0 0 0 0 0 0 127 0"/><feOffset dy="1" dx="0"/><feGaussianBlur stdDeviation="0.5"/><feComposite in2="hardAlpha" operator="arithmetic" k2="-1" k3="1"/><feColorMatrix type="matrix" values="0 0 0 0 1 0 0 0 0 1 0 0 0 0 1 0 0 0 1 0"/><feBlend mode="normal" in2="shape" result="effect2_innerShadow"/></filter><clipPath id="master_svg5_50_6928"><path d="M88.888916015625 2C88.888916015625 2 88.888916015625 2 88.888916015625 2L133.33335876464844 2C133.33335876464844 2 133.33335876464844 2 133.33335876464844 2L133.33335876464844 4.777777671813965C133.33335876464844 6.311901918377304 132.08970533939782 7.55555534362793 130.55558109283447 7.55555534362793L91.66669368743896 7.55555534362793C90.13256944087563 7.55555534362793 88.888916015625 6.311901918377304 88.888916015625 4.777777671813965Z"/></clipPath></defs><g><g transform="matrix(1,0,0,-1,0,804)" style="opacity:0.6399999856948853;" filter="url(#master_svg0_50_6927)"><path d="M32,402C122.2,402,377.8,402,468,402C485.673,402,500,416.2863,500,433.9595C500,497.6405,500,639.693,500,703.374C500,721.047,485.677,735.3330000000001,468.004,735.3330000000001C410.131,735.3330000000001,289.909,735.3330000000001,245.104,735.3330000000001C234.774,735.3330000000001,225.584,741.915,222.317,751.7149999999999C218.878,762.0319999999999,214.455,775.3009999999999,211.016,785.619C207.749,795.419,198.576,802,188.245,802C153.751,802,75.981,802,31.9563,802C14.2832,802,0,787.711,0,770.038C0,695.1220000000001,0,508.878,0,433.9617C0,416.2886,14.3268,402,32,402" fill="url(#master_svg1_0_2857)" fillOpacity="0.029999999329447746" style="mix-blend-mode:undefined"/><path d="M32,402C122.2,402,377.8,402,468,402C485.673,402,500,416.2863,500,433.9595C500,497.6405,500,639.693,500,703.374C500,721.047,485.677,735.3330000000001,468.004,735.3330000000001C410.131,735.3330000000001,289.909,735.3330000000001,245.104,735.3330000000001C234.774,735.3330000000001,225.584,741.915,222.317,751.7149999999999C218.878,762.0319999999999,214.455,775.3009999999999,211.016,785.619C207.749,795.419,198.576,802,188.245,802C153.751,802,75.981,802,31.9563,802C14.2832,802,0,787.711,0,770.038C0,695.1220000000001,0,508.878,0,433.9617C0,416.2886,14.3268,402,32,402" fill="url(#master_svg2_0_2858)" fillOpacity="1"/><path d="M32,402C122.2,402,377.8,402,468,402C485.673,402,500,416.2863,500,433.9595C500,497.6405,500,639.693,500,703.374C500,721.047,485.677,735.3330000000001,468.004,735.3330000000001C410.131,735.3330000000001,289.909,735.3330000000001,245.104,735.3330000000001C234.774,735.3330000000001,225.584,741.915,222.317,751.7149999999999C218.878,762.0319999999999,214.455,775.3009999999999,211.016,785.619C207.749,795.419,198.576,802,188.245,802C153.751,802,75.981,802,31.9563,802C14.2832,802,0,787.711,0,770.038C0,695.1220000000001,0,508.878,0,433.9617C0,416.2886,14.3268,402,32,402" fill="url(#master_svg3_0_2859)" fillOpacity="1" style="mix-blend-mode:color-dodge"/></g><g filter="url(#master_svg4_50_6928)"><g clip-path="url(#master_svg5_50_6928)"><path d="M88.888916015625 2C88.888916015625 2 88.888916015625 2 88.888916015625 2L133.33335876464844 2C133.33335876464844 2 133.33335876464844 2 133.33335876464844 2L133.33335876464844 4.777777671813965C133.33335876464844 6.311901918377304 132.08970533939782 7.55555534362793 130.55558109283447 7.55555534362793L91.66669368743896 7.55555534362793C90.13256944087563 7.55555534362793 88.888916015625 6.311901918377304 88.888916015625 4.777777671813965Z" fill="#77E5CA" fillOpacity="1"/></g></g></g></svg>