<svg xmlns="http://www.w3.org/2000/svg" xmlns:xlink="http://www.w3.org/1999/xlink" fill="none" version="1.1" width="360" height="288" viewBox="0 0 360 288"><defs><filter id="master_svg0_50_6916" filterUnits="objectBoundingBox" color-interpolation-filters="sRGB" x="0" y="0" width="360" height="288"><feFlood flood-opacity="0" result="BackgroundImageFix"/><feBlend mode="normal" in="SourceGraphic" in2="BackgroundImageFix" result="shape"/><feColorMatrix in="SourceAlpha" type="matrix" result="hardAlpha" values="0 0 0 0 0 0 0 0 0 0 0 0 0 0 0 0 0 0 127 0"/><feOffset dy="1" dx="0"/><feGaussianBlur stdDeviation="0.5"/><feComposite in2="hardAlpha" operator="arithmetic" k2="-1" k3="1"/><feColorMatrix type="matrix" values="0 0 0 0 1 0 0 0 0 1 0 0 0 0 1 0 0 0 0.23999999463558197 0"/><feBlend mode="normal" in2="shape" result="effect1_innerShadow"/><feGaussianBlur in="BackgroundImage" stdDeviation="16"/><feComposite in2="SourceAlpha" operator="in" result="effect2_foregroundBlur"/><feBlend mode="normal" in="SourceGraphic" in2="effect2_foregroundBlur" result="shape"/></filter><linearGradient x1="0.5" y1="0" x2="0.5" y2="1" id="master_svg1_0_2874"><stop offset="0%" stop-color="#40C2CF" stop-opacity="1"/><stop offset="100%" stop-color="#77E5CA" stop-opacity="1"/></linearGradient><radialGradient cx="0" cy="0" r="1" gradientUnits="userSpaceOnUse" id="master_svg2_0_2875" gradientTransform="translate(-0.000010875364608864402 576.0000343322754) rotate(141.3401892584362) scale(461.0249475553729 459.7086650438495)"><stop offset="0%" stop-color="#FDF06F" stop-opacity="0.07000000029802322"/><stop offset="55.58843016624451%" stop-color="#FDF06F" stop-opacity="0"/><stop offset="100%" stop-color="#FDF06F" stop-opacity="0"/></radialGradient><radialGradient cx="0" cy="0" r="1" gradientUnits="userSpaceOnUse" id="master_svg3_0_2876" gradientTransform="translate(3.39494032886023e-8 575.9999828338623) rotate(141.34019340917405) scale(461.0249343450541 464.59923302660115)"><stop offset="0%" stop-color="#FFFFFF" stop-opacity="0.07999999821186066"/><stop offset="73.8467276096344%" stop-color="#FFFFFF" stop-opacity="0"/><stop offset="100%" stop-color="#FFFFFF" stop-opacity="0"/></radialGradient><radialGradient cx="0" cy="0" r="1" gradientUnits="userSpaceOnUse" id="master_svg4_0_2877" gradientTransform="translate(-0.00000745058223117212 576) rotate(134.99999937845297) scale(353.5533914783588 353.55342308849526)"><stop offset="0%" stop-color="#FFFFFF" stop-opacity="1"/><stop offset="100%" stop-color="#FFFFFF" stop-opacity="0"/></radialGradient></defs><g transform="matrix(1,0,0,-1,0,576)" filter="url(#master_svg0_50_6916)"><path d="M31.9982,288C100.302,288,259.698,288,328.002,288C345.675,288,360,302.2947,360,319.9678C360,365.9042,360,450.096,360,496.03200000000004C360,513.705,345.67,528,327.997,528C286.105,528,214.157,528,181.289,528C170.959,528,161.796,534.613,158.529,544.414C156.895,549.3140000000001,155.105,554.6859999999999,153.471,559.586C150.204,569.387,141.047,576,130.717,576C106.552,576,62.2399,576,31.968,576C14.2949,576,0,561.7180000000001,0,544.0450000000001C0,488.637,0,375.3633,0,319.9551C0,302.282,14.3251,288,31.9982,288" fill="url(#master_svg1_0_2874)" fillOpacity="0.9599999785423279"/><path d="M31.9982,288C100.302,288,259.698,288,328.002,288C345.675,288,360,302.2947,360,319.9678C360,365.9042,360,450.096,360,496.03200000000004C360,513.705,345.67,528,327.997,528C286.105,528,214.157,528,181.289,528C170.959,528,161.796,534.613,158.529,544.414C156.895,549.3140000000001,155.105,554.6859999999999,153.471,559.586C150.204,569.387,141.047,576,130.717,576C106.552,576,62.2399,576,31.968,576C14.2949,576,0,561.7180000000001,0,544.0450000000001C0,488.637,0,375.3633,0,319.9551C0,302.282,14.3251,288,31.9982,288" fill="url(#master_svg2_0_2875)" fillOpacity="1"/><path d="M31.9982,288C100.302,288,259.698,288,328.002,288C345.675,288,360,302.2947,360,319.9678C360,365.9042,360,450.096,360,496.03200000000004C360,513.705,345.67,528,327.997,528C286.105,528,214.157,528,181.289,528C170.959,528,161.796,534.613,158.529,544.414C156.895,549.3140000000001,155.105,554.6859999999999,153.471,559.586C150.204,569.387,141.047,576,130.717,576C106.552,576,62.2399,576,31.968,576C14.2949,576,0,561.7180000000001,0,544.0450000000001C0,488.637,0,375.3633,0,319.9551C0,302.282,14.3251,288,31.9982,288" fill="url(#master_svg3_0_2876)" fillOpacity="1" style="mix-blend-mode:color-dodge"/><path d="M31.9982,288C100.302,288,259.698,288,328.002,288C345.675,288,360,302.2947,360,319.9678C360,365.9042,360,450.096,360,496.03200000000004C360,513.705,345.67,528,327.997,528C286.105,528,214.157,528,181.289,528C170.959,528,161.796,534.613,158.529,544.414C156.895,549.3140000000001,155.105,554.6859999999999,153.471,559.586C150.204,569.387,141.047,576,130.717,576C106.552,576,62.2399,576,31.968,576C14.2949,576,0,561.7180000000001,0,544.0450000000001C0,488.637,0,375.3633,0,319.9551C0,302.282,14.3251,288,31.9982,288" fill="url(#master_svg4_0_2877)" fillOpacity="0.6399999856948853" style="mix-blend-mode:overlay"/></g></svg>