<svg xmlns="http://www.w3.org/2000/svg" xmlns:xlink="http://www.w3.org/1999/xlink" fill="none" version="1.1" width="500.0000305175781" height="402" viewBox="0 0 500.0000305175781 402"><defs><filter id="master_svg0_50_7042" filterUnits="objectBoundingBox" color-interpolation-filters="sRGB" x="0" y="0" width="499.99993896484375" height="400"><feFlood flood-opacity="0" result="BackgroundImageFix"/><feBlend mode="normal" in="SourceGraphic" in2="BackgroundImageFix" result="shape"/><feColorMatrix in="SourceAlpha" type="matrix" result="hardAlpha" values="0 0 0 0 0 0 0 0 0 0 0 0 0 0 0 0 0 0 127 0"/><feOffset dy="1" dx="0"/><feGaussianBlur stdDeviation="0.5"/><feComposite in2="hardAlpha" operator="arithmetic" k2="-1" k3="1"/><feColorMatrix type="matrix" values="0 0 0 0 1 0 0 0 0 1 0 0 0 0 1 0 0 0 0.23999999463558197 0"/><feBlend mode="normal" in2="shape" result="effect1_innerShadow"/></filter><linearGradient x1="0.5" y1="0" x2="0.5" y2="1" id="master_svg1_0_2857"><stop offset="0%" stop-color="#E5DDDB" stop-opacity="1"/><stop offset="100%" stop-color="#F9F9F9" stop-opacity="1"/></linearGradient><radialGradient cx="0" cy="0" r="1" gradientUnits="userSpaceOnUse" id="master_svg2_0_2858" gradientTransform="translate(499.99995437775067 802.0000476837158) rotate(141.34018584667308) scale(640.3123794997945 638.4841315410104)"><stop offset="0%" stop-color="#FDF06F" stop-opacity="0.07000000029802322"/><stop offset="55.58843016624451%" stop-color="#FDF06F" stop-opacity="0"/><stop offset="100%" stop-color="#FDF06F" stop-opacity="0"/></radialGradient><radialGradient cx="0" cy="0" r="1" gradientUnits="userSpaceOnUse" id="master_svg3_0_2859" gradientTransform="translate(499.99996952957383 801.9999761581421) rotate(141.34018999741104) scale(640.3123611521254 645.2765857378638)"><stop offset="0%" stop-color="#FFFFFF" stop-opacity="0.07999999821186066"/><stop offset="73.8467276096344%" stop-color="#FFFFFF" stop-opacity="0"/><stop offset="100%" stop-color="#FFFFFF" stop-opacity="0"/></radialGradient><filter id="master_svg4_50_7037" filterUnits="objectBoundingBox" color-interpolation-filters="sRGB" x="-4" y="-3" width="40" height="13.55555534362793"><feFlood flood-opacity="0" result="BackgroundImageFix"/><feColorMatrix in="SourceAlpha" type="matrix" values="0 0 0 0 0 0 0 0 0 0 0 0 0 0 0 0 0 0 127 0"/><feOffset dy="1" dx="0"/><feGaussianBlur stdDeviation="1"/><feColorMatrix type="matrix" values="0 0 0 0 0.2705882489681244 0 0 0 0 0.20392157137393951 0 0 0 0 0.7568627595901489 0 0 0 0.4000000059604645 0"/><feBlend mode="normal" in2="BackgroundImageFix" result="effect1_dropShadow"/><feBlend mode="normal" in="SourceGraphic" in2="effect1_dropShadow" result="shape"/><feColorMatrix in="SourceAlpha" type="matrix" result="hardAlpha" values="0 0 0 0 0 0 0 0 0 0 0 0 0 0 0 0 0 0 127 0"/><feOffset dy="1" dx="0"/><feGaussianBlur stdDeviation="0.5"/><feComposite in2="hardAlpha" operator="arithmetic" k2="-1" k3="1"/><feColorMatrix type="matrix" values="0 0 0 0 1 0 0 0 0 1 0 0 0 0 1 0 0 0 1 0"/><feBlend mode="normal" in2="shape" result="effect2_innerShadow"/></filter><clipPath id="master_svg5_50_7037"><path d="M404.0000305175781 2C404.0000305175781 2 404.0000305175781 2 404.0000305175781 2L436.0000305175781 2C436.0000305175781 2 436.0000305175781 2 436.0000305175781 2L436.0000305175781 4.777777671813965C436.0000305175781 6.311901918377304 434.7563770923275 7.55555534362793 433.22225284576416 7.55555534362793L406.7778081893921 7.55555534362793C405.24368394282874 7.55555534362793 404.0000305175781 6.311901918377304 404.0000305175781 4.777777671813965Z"/></clipPath></defs><g><g transform="matrix(-1,0,0,-1,999.9999389648438,804)" style="opacity:0.6399999856948853;" filter="url(#master_svg0_50_7042)"><path d="M531.9999694824219,402C622.1999694824219,402,877.7999694824218,402,967.9999694824219,402C985.6729694824219,402,999.9999694824219,416.2863,999.9999694824219,433.9595C999.9999694824219,497.6405,999.9999694824219,639.693,999.9999694824219,703.374C999.9999694824219,721.047,985.6769694824219,735.3330000000001,968.0039694824219,735.3330000000001C910.1309694824218,735.3330000000001,789.9089694824219,735.3330000000001,745.1039694824219,735.3330000000001C734.7739694824219,735.3330000000001,725.5839694824219,741.915,722.3169694824219,751.7149999999999C718.8779694824218,762.0319999999999,714.4549694824219,775.3009999999999,711.0159694824218,785.619C707.7489694824219,795.419,698.5759694824219,802,688.2449694824219,802C653.7509694824219,802,575.9809694824219,802,531.9562694824219,802C514.2831694824218,802,499.9999694824219,787.711,499.9999694824219,770.038C499.9999694824219,695.1220000000001,499.9999694824219,508.878,499.9999694824219,433.9617C499.9999694824219,416.2886,514.3267694824219,402,531.9999694824219,402" fill="url(#master_svg1_0_2857)" fillOpacity="0.029999999329447746" style="mix-blend-mode:undefined"/><path d="M531.9999694824219,402C622.1999694824219,402,877.7999694824218,402,967.9999694824219,402C985.6729694824219,402,999.9999694824219,416.2863,999.9999694824219,433.9595C999.9999694824219,497.6405,999.9999694824219,639.693,999.9999694824219,703.374C999.9999694824219,721.047,985.6769694824219,735.3330000000001,968.0039694824219,735.3330000000001C910.1309694824218,735.3330000000001,789.9089694824219,735.3330000000001,745.1039694824219,735.3330000000001C734.7739694824219,735.3330000000001,725.5839694824219,741.915,722.3169694824219,751.7149999999999C718.8779694824218,762.0319999999999,714.4549694824219,775.3009999999999,711.0159694824218,785.619C707.7489694824219,795.419,698.5759694824219,802,688.2449694824219,802C653.7509694824219,802,575.9809694824219,802,531.9562694824219,802C514.2831694824218,802,499.9999694824219,787.711,499.9999694824219,770.038C499.9999694824219,695.1220000000001,499.9999694824219,508.878,499.9999694824219,433.9617C499.9999694824219,416.2886,514.3267694824219,402,531.9999694824219,402" fill="url(#master_svg2_0_2858)" fillOpacity="1"/><path d="M531.9999694824219,402C622.1999694824219,402,877.7999694824218,402,967.9999694824219,402C985.6729694824219,402,999.9999694824219,416.2863,999.9999694824219,433.9595C999.9999694824219,497.6405,999.9999694824219,639.693,999.9999694824219,703.374C999.9999694824219,721.047,985.6769694824219,735.3330000000001,968.0039694824219,735.3330000000001C910.1309694824218,735.3330000000001,789.9089694824219,735.3330000000001,745.1039694824219,735.3330000000001C734.7739694824219,735.3330000000001,725.5839694824219,741.915,722.3169694824219,751.7149999999999C718.8779694824218,762.0319999999999,714.4549694824219,775.3009999999999,711.0159694824218,785.619C707.7489694824219,795.419,698.5759694824219,802,688.2449694824219,802C653.7509694824219,802,575.9809694824219,802,531.9562694824219,802C514.2831694824218,802,499.9999694824219,787.711,499.9999694824219,770.038C499.9999694824219,695.1220000000001,499.9999694824219,508.878,499.9999694824219,433.9617C499.9999694824219,416.2886,514.3267694824219,402,531.9999694824219,402" fill="url(#master_svg3_0_2859)" fillOpacity="1" style="mix-blend-mode:color-dodge"/></g><g filter="url(#master_svg4_50_7037)"><g clip-path="url(#master_svg5_50_7037)"><path d="M404.0000305175781 2C404.0000305175781 2 404.0000305175781 2 404.0000305175781 2L436.0000305175781 2C436.0000305175781 2 436.0000305175781 2 436.0000305175781 2L436.0000305175781 4.777777671813965C436.0000305175781 6.311901918377304 434.7563770923275 7.55555534362793 433.22225284576416 7.55555534362793L406.7778081893921 7.55555534362793C405.24368394282874 7.55555534362793 404.0000305175781 6.311901918377304 404.0000305175781 4.777777671813965Z" fill="#4534C1" fillOpacity="1"/></g></g></g></svg>