<svg xmlns="http://www.w3.org/2000/svg" xmlns:xlink="http://www.w3.org/1999/xlink" fill="none" version="1.1" width="360" height="288" viewBox="0 0 360 288"><defs><filter id="master_svg0_50_6715" filterUnits="objectBoundingBox" color-interpolation-filters="sRGB" x="0" y="0" width="360" height="288"><feFlood flood-opacity="0" result="BackgroundImageFix"/><feBlend mode="normal" in="SourceGraphic" in2="BackgroundImageFix" result="shape"/><feColorMatrix in="SourceAlpha" type="matrix" result="hardAlpha" values="0 0 0 0 0 0 0 0 0 0 0 0 0 0 0 0 0 0 127 0"/><feOffset dy="1" dx="0"/><feGaussianBlur stdDeviation="0.5"/><feComposite in2="hardAlpha" operator="arithmetic" k2="-1" k3="1"/><feColorMatrix type="matrix" values="0 0 0 0 1 0 0 0 0 1 0 0 0 0 1 0 0 0 0.23999999463558197 0"/><feBlend mode="normal" in2="shape" result="effect1_innerShadow"/><feGaussianBlur in="BackgroundImage" stdDeviation="16"/><feComposite in2="SourceAlpha" operator="in" result="effect2_foregroundBlur"/><feBlend mode="normal" in="SourceGraphic" in2="effect2_foregroundBlur" result="shape"/></filter><linearGradient x1="0.5" y1="0" x2="0.5" y2="1" id="master_svg1_0_2982"><stop offset="0%" stop-color="#9688F9" stop-opacity="1"/><stop offset="100%" stop-color="#4534C1" stop-opacity="1"/></linearGradient><radialGradient cx="0" cy="0" r="1" gradientUnits="userSpaceOnUse" id="master_svg2_0_2983" gradientTransform="translate(359.99998912463536 576.0000343322754) rotate(141.3401892584362) scale(461.0249475553729 459.7086650438495)"><stop offset="0%" stop-color="#FDF06F" stop-opacity="0.07000000029802322"/><stop offset="55.58843016624451%" stop-color="#FDF06F" stop-opacity="0"/><stop offset="100%" stop-color="#FDF06F" stop-opacity="0"/></radialGradient><radialGradient cx="0" cy="0" r="1" gradientUnits="userSpaceOnUse" id="master_svg3_0_2984" gradientTransform="translate(360.0000000339494 575.9999828338623) rotate(141.34019340917405) scale(461.0249343450541 464.59923302660115)"><stop offset="0%" stop-color="#FFFFFF" stop-opacity="0.07999999821186066"/><stop offset="73.8467276096344%" stop-color="#FFFFFF" stop-opacity="0"/><stop offset="100%" stop-color="#FFFFFF" stop-opacity="0"/></radialGradient><radialGradient cx="0" cy="0" r="1" gradientUnits="userSpaceOnUse" id="master_svg4_0_2985" gradientTransform="translate(359.99999254941775 576) rotate(134.99999937845297) scale(353.5533914783588 353.55342308849526)"><stop offset="0%" stop-color="#FFFFFF" stop-opacity="1"/><stop offset="100%" stop-color="#FFFFFF" stop-opacity="0"/></radialGradient></defs><g transform="matrix(-1,0,0,-1,720,576)" filter="url(#master_svg0_50_6715)"><path d="M391.9982,288C460.302,288,619.698,288,688.002,288C705.675,288,720,302.2947,720,319.9678C720,365.9042,720,450.096,720,496.03200000000004C720,513.705,705.6700000000001,528,687.9970000000001,528C646.105,528,574.157,528,541.289,528C530.9590000000001,528,521.796,534.613,518.529,544.414C516.895,549.3140000000001,515.105,554.6859999999999,513.471,559.586C510.204,569.387,501.047,576,490.717,576C466.552,576,422.2399,576,391.968,576C374.2949,576,360,561.7180000000001,360,544.0450000000001C360,488.637,360,375.3633,360,319.9551C360,302.282,374.3251,288,391.9982,288" fill="url(#master_svg1_0_2982)" fillOpacity="0.9599999785423279"/><path d="M391.9982,288C460.302,288,619.698,288,688.002,288C705.675,288,720,302.2947,720,319.9678C720,365.9042,720,450.096,720,496.03200000000004C720,513.705,705.6700000000001,528,687.9970000000001,528C646.105,528,574.157,528,541.289,528C530.9590000000001,528,521.796,534.613,518.529,544.414C516.895,549.3140000000001,515.105,554.6859999999999,513.471,559.586C510.204,569.387,501.047,576,490.717,576C466.552,576,422.2399,576,391.968,576C374.2949,576,360,561.7180000000001,360,544.0450000000001C360,488.637,360,375.3633,360,319.9551C360,302.282,374.3251,288,391.9982,288" fill="url(#master_svg2_0_2983)" fillOpacity="1"/><path d="M391.9982,288C460.302,288,619.698,288,688.002,288C705.675,288,720,302.2947,720,319.9678C720,365.9042,720,450.096,720,496.03200000000004C720,513.705,705.6700000000001,528,687.9970000000001,528C646.105,528,574.157,528,541.289,528C530.9590000000001,528,521.796,534.613,518.529,544.414C516.895,549.3140000000001,515.105,554.6859999999999,513.471,559.586C510.204,569.387,501.047,576,490.717,576C466.552,576,422.2399,576,391.968,576C374.2949,576,360,561.7180000000001,360,544.0450000000001C360,488.637,360,375.3633,360,319.9551C360,302.282,374.3251,288,391.9982,288" fill="url(#master_svg3_0_2984)" fillOpacity="1" style="mix-blend-mode:color-dodge"/><path d="M391.9982,288C460.302,288,619.698,288,688.002,288C705.675,288,720,302.2947,720,319.9678C720,365.9042,720,450.096,720,496.03200000000004C720,513.705,705.6700000000001,528,687.9970000000001,528C646.105,528,574.157,528,541.289,528C530.9590000000001,528,521.796,534.613,518.529,544.414C516.895,549.3140000000001,515.105,554.6859999999999,513.471,559.586C510.204,569.387,501.047,576,490.717,576C466.552,576,422.2399,576,391.968,576C374.2949,576,360,561.7180000000001,360,544.0450000000001C360,488.637,360,375.3633,360,319.9551C360,302.282,374.3251,288,391.9982,288" fill="url(#master_svg4_0_2985)" fillOpacity="0.6399999856948853" style="mix-blend-mode:overlay"/></g></svg>