<svg xmlns="http://www.w3.org/2000/svg" xmlns:xlink="http://www.w3.org/1999/xlink" fill="none" version="1.1" width="512" height="401.33349609375" viewBox="0 0 512 401.33349609375"><defs><filter id="master_svg0_50_00183" filterUnits="objectBoundingBox" color-interpolation-filters="sRGB" x="-28" y="-4" width="516" height="357.33331298828125"><feFlood flood-opacity="0" result="BackgroundImageFix"/><feColorMatrix in="SourceAlpha" type="matrix" values="0 0 0 0 0 0 0 0 0 0 0 0 0 0 0 0 0 0 127 0"/><feOffset dy="14" dx="0"/><feGaussianBlur stdDeviation="2"/><feColorMatrix type="matrix" values="0 0 0 0 0 0 0 0 0 0 0 0 0 0 0 0 0 0 0 0"/><feBlend mode="normal" in2="BackgroundImageFix" result="effect1_dropShadow"/><feColorMatrix in="SourceAlpha" type="matrix" values="0 0 0 0 0 0 0 0 0 0 0 0 0 0 0 0 0 0 127 0"/><feOffset dy="9" dx="0"/><feGaussianBlur stdDeviation="2"/><feColorMatrix type="matrix" values="0 0 0 0 0 0 0 0 0 0 0 0 0 0 0 0 0 0 0.009999999776482582 0"/><feBlend mode="normal" in2="effect1_dropShadow" result="effect2_dropShadow"/><feColorMatrix in="SourceAlpha" type="matrix" values="0 0 0 0 0 0 0 0 0 0 0 0 0 0 0 0 0 0 127 0"/><feOffset dy="1" dx="0"/><feGaussianBlur stdDeviation="0.5"/><feColorMatrix type="matrix" values="0 0 0 0 0 0 0 0 0 0 0 0 0 0 0 0 0 0 0.03999999910593033 0"/><feBlend mode="normal" in2="effect2_dropShadow" result="effect3_dropShadow"/><feColorMatrix in="SourceAlpha" type="matrix" values="0 0 0 0 0 0 0 0 0 0 0 0 0 0 0 0 0 0 127 0"/><feOffset dy="2" dx="0"/><feGaussianBlur stdDeviation="1"/><feColorMatrix type="matrix" values="0 0 0 0 0 0 0 0 0 0 0 0 0 0 0 0 0 0 0.029999999329447746 0"/><feBlend mode="normal" in2="effect3_dropShadow" result="effect4_dropShadow"/><feColorMatrix in="SourceAlpha" type="matrix" values="0 0 0 0 0 0 0 0 0 0 0 0 0 0 0 0 0 0 127 0"/><feOffset dy="5" dx="0"/><feGaussianBlur stdDeviation="1.5"/><feColorMatrix type="matrix" values="0 0 0 0 0 0 0 0 0 0 0 0 0 0 0 0 0 0 0.019999999552965164 0"/><feBlend mode="normal" in2="effect4_dropShadow" result="effect5_dropShadow"/><feBlend mode="normal" in="SourceGraphic" in2="effect5_dropShadow" result="shape"/><feColorMatrix in="SourceAlpha" type="matrix" result="hardAlpha" values="0 0 0 0 0 0 0 0 0 0 0 0 0 0 0 0 0 0 127 0"/><feOffset dy="1" dx="0"/><feGaussianBlur stdDeviation="0.5"/><feComposite in2="hardAlpha" operator="arithmetic" k2="-1" k3="1"/><feColorMatrix type="matrix" values="0 0 0 0 1 0 0 0 0 1 0 0 0 0 1 0 0 0 0.23999999463558197 0"/><feBlend mode="normal" in2="shape" result="effect6_innerShadow"/><feGaussianBlur in="BackgroundImage" stdDeviation="32"/><feComposite in2="SourceAlpha" operator="in" result="effect7_foregroundBlur"/><feBlend mode="normal" in="SourceGraphic" in2="effect7_foregroundBlur" result="shape"/></filter><linearGradient x1="0.5" y1="-2.220446049250313e-16" x2="0.5" y2="1.2000001668930054" id="master_svg1_0_2954"><stop offset="0%" stop-color="#E5DDDB" stop-opacity="1"/><stop offset="100%" stop-color="#F9F9F9" stop-opacity="1"/></linearGradient><radialGradient cx="0" cy="0" r="1" gradientUnits="userSpaceOnUse" id="master_svg2_0_2955" gradientTransform="translate(5.999940395348119 800.3335273106859) rotate(141.3401928964919) scale(640.3124516221696 638.484282201826)"><stop offset="0%" stop-color="#FDF06F" stop-opacity="0.07000000029802322"/><stop offset="55.58843016624451%" stop-color="#FDF06F" stop-opacity="0"/><stop offset="100%" stop-color="#FDF06F" stop-opacity="0"/></radialGradient><radialGradient cx="0" cy="0" r="1" gradientUnits="userSpaceOnUse" id="master_svg3_0_2956" gradientTransform="translate(5.999994039535434 800.3334875742585) rotate(141.34019267437148) scale(640.3124230755417 645.2767185880648)"><stop offset="0%" stop-color="#FFFFFF" stop-opacity="0.07999999821186066"/><stop offset="73.8467276096344%" stop-color="#FFFFFF" stop-opacity="0"/><stop offset="100%" stop-color="#FFFFFF" stop-opacity="0"/></radialGradient></defs><g><g><rect x="6" y="0" width="500" height="400" rx="0" fill="#D8D8D8" fillOpacity="0"/></g><g transform="matrix(1,0,0,-1,0,800.6669921875)" filter="url(#master_svg0_50_00183)"><path d="M38,400.33349609375C128.2,400.33349609375,383.8,400.33349609375,474,400.33349609375C491.673,400.33349609375,506,414.61979609375,506,432.29299609375C506,495.97399609375,506,638.02649609375,506,701.70749609375C506,719.38049609375,491.677,733.6664960937501,474.004,733.6664960937501C402.063,733.6664960937501,233.778,733.6664960937501,233.778,733.6664960937501C233.778,733.6664960937501,211.556,733.6664960937501,211.556,733.6664960937501C211.556,733.6664960937501,95.7146,733.6664960937501,37.9563,733.6664960937501C20.2832,733.6664960937501,6,719.38049609375,6,701.70749609375C6,638.02649609375,6,495.97399609375,6,432.29299609375C6,414.61979609375,20.3268,400.33349609375,38,400.33349609375" fill="url(#master_svg1_0_2954)" fillOpacity="0.05999999865889549" style="mix-blend-mode:undefined"/><path d="M38,400.33349609375C128.2,400.33349609375,383.8,400.33349609375,474,400.33349609375C491.673,400.33349609375,506,414.61979609375,506,432.29299609375C506,495.97399609375,506,638.02649609375,506,701.70749609375C506,719.38049609375,491.677,733.6664960937501,474.004,733.6664960937501C402.063,733.6664960937501,233.778,733.6664960937501,233.778,733.6664960937501C233.778,733.6664960937501,211.556,733.6664960937501,211.556,733.6664960937501C211.556,733.6664960937501,95.7146,733.6664960937501,37.9563,733.6664960937501C20.2832,733.6664960937501,6,719.38049609375,6,701.70749609375C6,638.02649609375,6,495.97399609375,6,432.29299609375C6,414.61979609375,20.3268,400.33349609375,38,400.33349609375" fill="url(#master_svg2_0_2955)" fillOpacity="1"/><path d="M38,400.33349609375C128.2,400.33349609375,383.8,400.33349609375,474,400.33349609375C491.673,400.33349609375,506,414.61979609375,506,432.29299609375C506,495.97399609375,506,638.02649609375,506,701.70749609375C506,719.38049609375,491.677,733.6664960937501,474.004,733.6664960937501C402.063,733.6664960937501,233.778,733.6664960937501,233.778,733.6664960937501C233.778,733.6664960937501,211.556,733.6664960937501,211.556,733.6664960937501C211.556,733.6664960937501,95.7146,733.6664960937501,37.9563,733.6664960937501C20.2832,733.6664960937501,6,719.38049609375,6,701.70749609375C6,638.02649609375,6,495.97399609375,6,432.29299609375C6,414.61979609375,20.3268,400.33349609375,38,400.33349609375" fill="url(#master_svg3_0_2956)" fillOpacity="1" style="mix-blend-mode:color-dodge"/></g></g></svg>