<svg xmlns="http://www.w3.org/2000/svg" xmlns:xlink="http://www.w3.org/1999/xlink" fill="none" version="1.1" width="44" height="53" viewBox="0 0 44 53"><defs><filter id="master_svg0_50_6837" filterUnits="objectBoundingBox" color-interpolation-filters="sRGB" x="-28" y="-4" width="48" height="56"><feFlood flood-opacity="0" result="BackgroundImageFix"/><feColorMatrix in="SourceAlpha" type="matrix" values="0 0 0 0 0 0 0 0 0 0 0 0 0 0 0 0 0 0 127 0"/><feOffset dy="2" dx="0"/><feGaussianBlur stdDeviation="1"/><feColorMatrix type="matrix" values="0 0 0 0 0 0 0 0 0 0 0 0 0 0 0 0 0 0 0.029999999329447746 0"/><feBlend mode="normal" in2="BackgroundImageFix" result="effect1_dropShadow"/><feColorMatrix in="SourceAlpha" type="matrix" values="0 0 0 0 0 0 0 0 0 0 0 0 0 0 0 0 0 0 127 0"/><feOffset dy="9" dx="0"/><feGaussianBlur stdDeviation="2"/><feColorMatrix type="matrix" values="0 0 0 0 0 0 0 0 0 0 0 0 0 0 0 0 0 0 0.009999999776482582 0"/><feBlend mode="normal" in2="effect1_dropShadow" result="effect2_dropShadow"/><feColorMatrix in="SourceAlpha" type="matrix" values="0 0 0 0 0 0 0 0 0 0 0 0 0 0 0 0 0 0 127 0"/><feOffset dy="1" dx="0"/><feGaussianBlur stdDeviation="0.5"/><feColorMatrix type="matrix" values="0 0 0 0 0 0 0 0 0 0 0 0 0 0 0 0 0 0 0.03999999910593033 0"/><feBlend mode="normal" in2="effect2_dropShadow" result="effect3_dropShadow"/><feColorMatrix in="SourceAlpha" type="matrix" values="0 0 0 0 0 0 0 0 0 0 0 0 0 0 0 0 0 0 127 0"/><feOffset dy="5" dx="0"/><feGaussianBlur stdDeviation="1.5"/><feColorMatrix type="matrix" values="0 0 0 0 0 0 0 0 0 0 0 0 0 0 0 0 0 0 0.019999999552965164 0"/><feBlend mode="normal" in2="effect3_dropShadow" result="effect4_dropShadow"/><feColorMatrix in="SourceAlpha" type="matrix" values="0 0 0 0 0 0 0 0 0 0 0 0 0 0 0 0 0 0 127 0"/><feOffset dy="14" dx="0"/><feGaussianBlur stdDeviation="2"/><feColorMatrix type="matrix" values="0 0 0 0 0 0 0 0 0 0 0 0 0 0 0 0 0 0 0 0"/><feBlend mode="normal" in2="effect4_dropShadow" result="effect5_dropShadow"/><feBlend mode="normal" in="SourceGraphic" in2="effect5_dropShadow" result="shape"/><feColorMatrix in="SourceAlpha" type="matrix" result="hardAlpha" values="0 0 0 0 0 0 0 0 0 0 0 0 0 0 0 0 0 0 127 0"/><feOffset dy="0.5" dx="0"/><feGaussianBlur stdDeviation="0.25"/><feComposite in2="hardAlpha" operator="arithmetic" k2="-1" k3="1"/><feColorMatrix type="matrix" values="0 0 0 0 1 0 0 0 0 1 0 0 0 0 1 0 0 0 0.23999999463558197 0"/><feBlend mode="normal" in2="shape" result="effect6_innerShadow"/></filter><linearGradient x1="0.5" y1="0" x2="0.5" y2="1" id="master_svg1_0_232"><stop offset="0%" stop-color="#E5DDDB" stop-opacity="1"/><stop offset="100%" stop-color="#F9F9F9" stop-opacity="1"/></linearGradient><radialGradient cx="0" cy="0" r="1" gradientUnits="userSpaceOnUse" id="master_svg2_0_233" gradientTransform="translate(5.999999033300924 33.000003814697266) rotate(134.99999745033946) scale(45.25483467949856 45.262166208201464)"><stop offset="0%" stop-color="#FDF06F" stop-opacity="0.07000000029802322"/><stop offset="55.58843016624451%" stop-color="#FDF06F" stop-opacity="0"/><stop offset="100%" stop-color="#FDF06F" stop-opacity="0"/></radialGradient><radialGradient cx="0" cy="0" r="1" gradientUnits="userSpaceOnUse" id="master_svg3_0_234" gradientTransform="translate(6.000000003017725 32.99999809265137) rotate(135.00000170484574) scale(45.254832645106056 45.74368212527443)"><stop offset="0%" stop-color="#FFFFFF" stop-opacity="0.07999999821186066"/><stop offset="73.8467276096344%" stop-color="#FFFFFF" stop-opacity="0"/><stop offset="100%" stop-color="#FFFFFF" stop-opacity="0"/></radialGradient></defs><g style="opacity:0.6399999856948853;" filter="url(#master_svg0_50_6837)"><rect x="6" y="1" width="32" height="32" rx="16" fill="url(#master_svg1_0_232)" fillOpacity="0.11999999731779099" style="mix-blend-mode:undefined"/><rect x="6" y="1" width="32" height="32" rx="16" fill="url(#master_svg2_0_233)" fillOpacity="1"/><rect x="6" y="1" width="32" height="32" rx="16" fill="url(#master_svg3_0_234)" fillOpacity="1" style="mix-blend-mode:color-dodge"/><g><g><path d="M17,13L27,13Q27.0985,13,27.1951,13.019214999999999Q27.2917,13.03843,27.3827,13.076121Q27.4737,13.113812,27.5556,13.16853Q27.6375,13.223249,27.7071,13.292893Q27.776699999999998,13.362537,27.8315,13.44443Q27.886200000000002,13.526322,27.9239,13.617317Q27.9616,13.708311,27.980800000000002,13.80491Q28,13.9015086,28,14Q28,14.0984914,27.980800000000002,14.19509Q27.9616,14.291689,27.9239,14.382683Q27.886200000000002,14.473678,27.8315,14.55557Q27.776699999999998,14.637463,27.7071,14.707107Q27.6375,14.776751,27.5556,14.83147Q27.4737,14.886188,27.3827,14.923879Q27.2917,14.96157,27.1951,14.980785000000001Q27.0985,15,27,15L17,15Q16.9015086,15,16.80491,14.980785000000001Q16.708311,14.96157,16.617317,14.923879Q16.526322,14.886188,16.44443,14.83147Q16.362537,14.776751,16.292893,14.707107Q16.223249,14.637463,16.16853,14.55557Q16.113812,14.473678,16.076121,14.382683Q16.038429999999998,14.291689,16.019215,14.19509Q16,14.0984914,16,14Q16,13.9015086,16.019215,13.80491Q16.038429999999998,13.708311,16.076121,13.617317Q16.113812,13.526322,16.16853,13.44443Q16.223249,13.362537,16.292893,13.292893Q16.362537,13.223249,16.44443,13.16853Q16.526322,13.113812,16.617317,13.076121Q16.708311,13.03843,16.80491,13.019214999999999Q16.9015086,13,17,13ZM17,19L27,19Q27.0985,19,27.1951,19.01921Q27.2917,19.038429999999998,27.3827,19.07612Q27.4737,19.11381,27.5556,19.16853Q27.6375,19.22325,27.7071,19.29289Q27.776699999999998,19.36254,27.8315,19.44443Q27.886200000000002,19.52632,27.9239,19.61732Q27.9616,19.70831,27.980800000000002,19.80491Q28,19.901510000000002,28,20Q28,20.098489999999998,27.980800000000002,20.19509Q27.9616,20.29169,27.9239,20.38268Q27.886200000000002,20.47368,27.8315,20.55557Q27.776699999999998,20.63746,27.7071,20.70711Q27.6375,20.77675,27.5556,20.83147Q27.4737,20.88619,27.3827,20.92388Q27.2917,20.961570000000002,27.1951,20.98078Q27.0985,21,27,21L17,21Q16.9015086,21,16.80491,20.98078Q16.708311,20.961570000000002,16.617317,20.92388Q16.526322,20.88619,16.44443,20.83147Q16.362537,20.77675,16.292893,20.70711Q16.223249,20.63746,16.16853,20.55557Q16.113812,20.47368,16.076121,20.38268Q16.038429999999998,20.29169,16.019215,20.19509Q16,20.098489999999998,16,20Q16,19.901510000000002,16.019215,19.80491Q16.038429999999998,19.70831,16.076121,19.61732Q16.113812,19.52632,16.16853,19.44443Q16.223249,19.36254,16.292893,19.29289Q16.362537,19.22325,16.44443,19.16853Q16.526322,19.11381,16.617317,19.07612Q16.708311,19.038429999999998,16.80491,19.01921Q16.9015086,19,17,19Z" fillRule="evenodd" fill="#F9F9F9" fillOpacity="1"/></g></g></g></svg>