<svg xmlns="http://www.w3.org/2000/svg" xmlns:xlink="http://www.w3.org/1999/xlink" fill="none" version="1.1" width="44" height="61" viewBox="0 0 44 61"><defs><filter id="master_svg0_50_00003/0_2973" filterUnits="objectBoundingBox" color-interpolation-filters="sRGB" x="-28" y="-4" width="48" height="64"><feFlood flood-opacity="0" result="BackgroundImageFix"/><feColorMatrix in="SourceAlpha" type="matrix" values="0 0 0 0 0 0 0 0 0 0 0 0 0 0 0 0 0 0 127 0"/><feOffset dy="2" dx="0"/><feGaussianBlur stdDeviation="1"/><feColorMatrix type="matrix" values="0 0 0 0 0 0 0 0 0 0 0 0 0 0 0 0 0 0 0.029999999329447746 0"/><feBlend mode="normal" in2="BackgroundImageFix" result="effect1_dropShadow"/><feColorMatrix in="SourceAlpha" type="matrix" values="0 0 0 0 0 0 0 0 0 0 0 0 0 0 0 0 0 0 127 0"/><feOffset dy="9" dx="0"/><feGaussianBlur stdDeviation="2"/><feColorMatrix type="matrix" values="0 0 0 0 0 0 0 0 0 0 0 0 0 0 0 0 0 0 0.009999999776482582 0"/><feBlend mode="normal" in2="effect1_dropShadow" result="effect2_dropShadow"/><feColorMatrix in="SourceAlpha" type="matrix" values="0 0 0 0 0 0 0 0 0 0 0 0 0 0 0 0 0 0 127 0"/><feOffset dy="1" dx="0"/><feGaussianBlur stdDeviation="0.5"/><feColorMatrix type="matrix" values="0 0 0 0 0 0 0 0 0 0 0 0 0 0 0 0 0 0 0.03999999910593033 0"/><feBlend mode="normal" in2="effect2_dropShadow" result="effect3_dropShadow"/><feColorMatrix in="SourceAlpha" type="matrix" values="0 0 0 0 0 0 0 0 0 0 0 0 0 0 0 0 0 0 127 0"/><feOffset dy="5" dx="0"/><feGaussianBlur stdDeviation="1.5"/><feColorMatrix type="matrix" values="0 0 0 0 0 0 0 0 0 0 0 0 0 0 0 0 0 0 0.019999999552965164 0"/><feBlend mode="normal" in2="effect3_dropShadow" result="effect4_dropShadow"/><feColorMatrix in="SourceAlpha" type="matrix" values="0 0 0 0 0 0 0 0 0 0 0 0 0 0 0 0 0 0 127 0"/><feOffset dy="14" dx="0"/><feGaussianBlur stdDeviation="2"/><feColorMatrix type="matrix" values="0 0 0 0 0 0 0 0 0 0 0 0 0 0 0 0 0 0 0 0"/><feBlend mode="normal" in2="effect4_dropShadow" result="effect5_dropShadow"/><feBlend mode="normal" in="SourceGraphic" in2="effect5_dropShadow" result="shape"/><feColorMatrix in="SourceAlpha" type="matrix" result="hardAlpha" values="0 0 0 0 0 0 0 0 0 0 0 0 0 0 0 0 0 0 127 0"/><feOffset dy="0.5" dx="0"/><feGaussianBlur stdDeviation="0.25"/><feComposite in2="hardAlpha" operator="arithmetic" k2="-1" k3="1"/><feColorMatrix type="matrix" values="0 0 0 0 1 0 0 0 0 1 0 0 0 0 1 0 0 0 0.23999999463558197 0"/><feBlend mode="normal" in2="shape" result="effect6_innerShadow"/></filter><linearGradient x1="0.5" y1="0" x2="0.5" y2="1" id="master_svg1_0_232"><stop offset="0%" stop-color="#E5DDDB" stop-opacity="1"/><stop offset="100%" stop-color="#F9F9F9" stop-opacity="1"/></linearGradient><radialGradient cx="0" cy="0" r="1" gradientUnits="userSpaceOnUse" id="master_svg2_0_233" gradientTransform="translate(5.999999033300924 41.00000476837158) rotate(128.65980576661644) scale(51.224995173580034 40.986635120534494)"><stop offset="0%" stop-color="#FDF06F" stop-opacity="0.07000000029802322"/><stop offset="55.58843016624451%" stop-color="#FDF06F" stop-opacity="0"/><stop offset="100%" stop-color="#FDF06F" stop-opacity="0"/></radialGradient><radialGradient cx="0" cy="0" r="1" gradientUnits="userSpaceOnUse" id="master_svg3_0_234" gradientTransform="translate(6.000000003017725 40.99999761581421) rotate(128.65980991735424) scale(51.22499203584133 41.422665657531994)"><stop offset="0%" stop-color="#FFFFFF" stop-opacity="0.07999999821186066"/><stop offset="73.8467276096344%" stop-color="#FFFFFF" stop-opacity="0"/><stop offset="100%" stop-color="#FFFFFF" stop-opacity="0"/></radialGradient></defs><g filter="url(#master_svg0_50_00003/0_2973)"><rect x="6" y="1" width="32" height="40" rx="16" fill="url(#master_svg1_0_232)" fillOpacity="0.11999999731779099" style="mix-blend-mode:undefined"/><rect x="6" y="1" width="32" height="40" rx="16" fill="url(#master_svg2_0_233)" fillOpacity="1"/><rect x="6" y="1" width="32" height="40" rx="16" fill="url(#master_svg3_0_234)" fillOpacity="1" style="mix-blend-mode:color-dodge"/><g><g><path d="M17,17L27,17Q27.0985,17,27.1951,17.019215Q27.2917,17.038429999999998,27.3827,17.076121Q27.4737,17.113812,27.5556,17.16853Q27.6375,17.223249,27.7071,17.292893Q27.776699999999998,17.362537,27.8315,17.44443Q27.886200000000002,17.526322,27.9239,17.617317Q27.9616,17.708311,27.980800000000002,17.80491Q28,17.9015086,28,18Q28,18.0984914,27.980800000000002,18.19509Q27.9616,18.291689,27.9239,18.382683Q27.886200000000002,18.473678,27.8315,18.55557Q27.776699999999998,18.637463,27.7071,18.707107Q27.6375,18.776751,27.5556,18.83147Q27.4737,18.886188,27.3827,18.923879Q27.2917,18.961570000000002,27.1951,18.980785Q27.0985,19,27,19L17,19Q16.9015086,19,16.80491,18.980785Q16.708311,18.961570000000002,16.617317,18.923879Q16.526322,18.886188,16.44443,18.83147Q16.362537,18.776751,16.292893,18.707107Q16.223249,18.637463,16.16853,18.55557Q16.113812,18.473678,16.076121,18.382683Q16.038429999999998,18.291689,16.019215,18.19509Q16,18.0984914,16,18Q16,17.9015086,16.019215,17.80491Q16.038429999999998,17.708311,16.076121,17.617317Q16.113812,17.526322,16.16853,17.44443Q16.223249,17.362537,16.292893,17.292893Q16.362537,17.223249,16.44443,17.16853Q16.526322,17.113812,16.617317,17.076121Q16.708311,17.038429999999998,16.80491,17.019215Q16.9015086,17,17,17ZM17,23L27,23Q27.0985,23,27.1951,23.01921Q27.2917,23.038429999999998,27.3827,23.07612Q27.4737,23.11381,27.5556,23.16853Q27.6375,23.22325,27.7071,23.29289Q27.776699999999998,23.36254,27.8315,23.44443Q27.886200000000002,23.52632,27.9239,23.61732Q27.9616,23.70831,27.980800000000002,23.80491Q28,23.901510000000002,28,24Q28,24.098489999999998,27.980800000000002,24.19509Q27.9616,24.29169,27.9239,24.38268Q27.886200000000002,24.47368,27.8315,24.55557Q27.776699999999998,24.63746,27.7071,24.70711Q27.6375,24.77675,27.5556,24.83147Q27.4737,24.88619,27.3827,24.92388Q27.2917,24.961570000000002,27.1951,24.98078Q27.0985,25,27,25L17,25Q16.9015086,25,16.80491,24.98078Q16.708311,24.961570000000002,16.617317,24.92388Q16.526322,24.88619,16.44443,24.83147Q16.362537,24.77675,16.292893,24.70711Q16.223249,24.63746,16.16853,24.55557Q16.113812,24.47368,16.076121,24.38268Q16.038429999999998,24.29169,16.019215,24.19509Q16,24.098489999999998,16,24Q16,23.901510000000002,16.019215,23.80491Q16.038429999999998,23.70831,16.076121,23.61732Q16.113812,23.52632,16.16853,23.44443Q16.223249,23.36254,16.292893,23.29289Q16.362537,23.22325,16.44443,23.16853Q16.526322,23.11381,16.617317,23.07612Q16.708311,23.038429999999998,16.80491,23.01921Q16.9015086,23,17,23Z" fillRule="evenodd" fill="#F9F9F9" fillOpacity="1"/></g></g></g></svg>